<mxfile host="app.diagrams.net" modified="2024-07-14T16:36:43.213Z" agent="Mozilla/5.0 (Windows NT 10.0; Win64; x64) AppleWebKit/537.36 (KHTML, like Gecko) Chrome/126.0.0.0 Safari/537.36" etag="SHaD_H22nH7pJU-vCZEJ" version="24.6.5" type="device">
  <diagram id="vYMj-4dYeqzh50wIsNQz" name="Quokka">
    <mxGraphModel dx="4097" dy="2240" grid="1" gridSize="10" guides="1" tooltips="1" connect="1" arrows="1" fold="1" page="1" pageScale="1" pageWidth="850" pageHeight="1100" math="0" shadow="0">
      <root>
        <mxCell id="0" />
        <mxCell id="1" parent="0" />
        <UserObject label="" mermaidData="{&#xa;  &quot;data&quot;: &quot;flowchart LR\n%% Nodes\n    A(App is Launched)\n    B(Load Settings)\n    C(Index Plugins)\n    D(Run onAppStartup)\n    E(Create Tray Icon)\n    F{User Interaction} \n    G{User hits any key}\n    H(Check Hotkey)\n    I{Matches Hotkey?}\n    J(Create Search Window)\n    K(Run onSearchWindow)\n    L{User Types in Search Window}\n    M(Call onQueryChange)\n    N(Sort and Display Results)\n    O{Right Click Tray Icon}\n    P(Context Menu)\n    Q(Exit Program)\n    R(Run onAppShutdown)\n\n%% Edge connections between nodes\n    A --&gt; B --&gt; C --&gt; D --&gt; E --&gt; F\n    F --&gt; G --&gt; H --&gt; I\n    I --&gt;|Yes| J --&gt; K --&gt; L --&gt; M --&gt; N\n    I --&gt;|No| G\n    F --&gt; O --&gt; P --&gt; Q --&gt; R\n\n%% Individual node styling\n    style F color:#FFFFFF, fill:#00BFFF, stroke:#00BFFF\n    style I color:#FFFFFF, fill:#FF6347, stroke:#FF6347\n    style L color:#FFFFFF, fill:#32CD32, stroke:#32CD32\n    style Q color:#FFFFFF, fill:#FF4500, stroke:#FF4500\n\n%% You can add notes with two \&quot;%\&quot; signs in a row!&quot;,&#xa;  &quot;config&quot;: {&#xa;    &quot;theme&quot;: &quot;neutral&quot;,&#xa;    &quot;arrowMarkerAbsolute&quot;: false,&#xa;    &quot;flowchart&quot;: {&#xa;      &quot;htmlLabels&quot;: false&#xa;    },&#xa;    &quot;sequence&quot;: {&#xa;      &quot;diagramMarginX&quot;: 50,&#xa;      &quot;diagramMarginY&quot;: 10,&#xa;      &quot;actorMargin&quot;: 50,&#xa;      &quot;width&quot;: 150,&#xa;      &quot;height&quot;: 65,&#xa;      &quot;boxMargin&quot;: 10,&#xa;      &quot;boxTextMargin&quot;: 5,&#xa;      &quot;noteMargin&quot;: 10,&#xa;      &quot;messageMargin&quot;: 35,&#xa;      &quot;mirrorActors&quot;: true,&#xa;      &quot;bottomMarginAdj&quot;: 1,&#xa;      &quot;useMaxWidth&quot;: true,&#xa;      &quot;rightAngles&quot;: false,&#xa;      &quot;showSequenceNumbers&quot;: false&#xa;    },&#xa;    &quot;gantt&quot;: {&#xa;      &quot;titleTopMargin&quot;: 25,&#xa;      &quot;barHeight&quot;: 20,&#xa;      &quot;barGap&quot;: 4,&#xa;      &quot;topPadding&quot;: 50,&#xa;      &quot;leftPadding&quot;: 75,&#xa;      &quot;gridLineStartPadding&quot;: 35,&#xa;      &quot;fontSize&quot;: 11,&#xa;      &quot;fontFamily&quot;: &quot;\&quot;Open-Sans\&quot;, \&quot;sans-serif\&quot;&quot;,&#xa;      &quot;numberSectionStyles&quot;: 4,&#xa;      &quot;axisFormat&quot;: &quot;%Y-%m-%d&quot;&#xa;    },&#xa;    &quot;securityLevel&quot;: &quot;strict&quot;,&#xa;    &quot;startOnLoad&quot;: false,&#xa;    &quot;themeVariables&quot;: {&#xa;      &quot;primaryColor&quot;: &quot;#eee&quot;,&#xa;      &quot;contrast&quot;: &quot;#707070&quot;,&#xa;      &quot;secondaryColor&quot;: &quot;hsl(0, 0%, 98.9215686275%)&quot;,&#xa;      &quot;background&quot;: &quot;#ffffff&quot;,&#xa;      &quot;tertiaryColor&quot;: &quot;hsl(-160, 0%, 93.3333333333%)&quot;,&#xa;      &quot;primaryBorderColor&quot;: &quot;hsl(0, 0%, 83.3333333333%)&quot;,&#xa;      &quot;secondaryBorderColor&quot;: &quot;hsl(0, 0%, 88.9215686275%)&quot;,&#xa;      &quot;tertiaryBorderColor&quot;: &quot;hsl(-160, 0%, 83.3333333333%)&quot;,&#xa;      &quot;primaryTextColor&quot;: &quot;#111111&quot;,&#xa;      &quot;secondaryTextColor&quot;: &quot;rgb(2.7499999999, 2.7499999999, 2.7499999999)&quot;,&#xa;      &quot;tertiaryTextColor&quot;: &quot;rgb(17.0000000001, 17.0000000001, 17.0000000001)&quot;,&#xa;      &quot;lineColor&quot;: &quot;#666&quot;,&#xa;      &quot;textColor&quot;: &quot;#000000&quot;,&#xa;      &quot;mainBkg&quot;: &quot;#eee&quot;,&#xa;      &quot;secondBkg&quot;: &quot;hsl(0, 0%, 98.9215686275%)&quot;,&#xa;      &quot;border1&quot;: &quot;#999&quot;,&#xa;      &quot;border2&quot;: &quot;#707070&quot;,&#xa;      &quot;note&quot;: &quot;#ffa&quot;,&#xa;      &quot;text&quot;: &quot;#333&quot;,&#xa;      &quot;critical&quot;: &quot;#d42&quot;,&#xa;      &quot;done&quot;: &quot;#bbb&quot;,&#xa;      &quot;arrowheadColor&quot;: &quot;#333333&quot;,&#xa;      &quot;fontFamily&quot;: &quot;\&quot;trebuchet ms\&quot;, verdana, arial, sans-serif&quot;,&#xa;      &quot;fontSize&quot;: &quot;16px&quot;,&#xa;      &quot;THEME_COLOR_LIMIT&quot;: 12,&#xa;      &quot;nodeBkg&quot;: &quot;#eee&quot;,&#xa;      &quot;nodeBorder&quot;: &quot;#999&quot;,&#xa;      &quot;clusterBkg&quot;: &quot;hsl(0, 0%, 98.9215686275%)&quot;,&#xa;      &quot;clusterBorder&quot;: &quot;#707070&quot;,&#xa;      &quot;defaultLinkColor&quot;: &quot;#666&quot;,&#xa;      &quot;titleColor&quot;: &quot;#333&quot;,&#xa;      &quot;edgeLabelBackground&quot;: &quot;white&quot;,&#xa;      &quot;actorBorder&quot;: &quot;hsl(0, 0%, 83%)&quot;,&#xa;      &quot;actorBkg&quot;: &quot;#eee&quot;,&#xa;      &quot;actorTextColor&quot;: &quot;#333&quot;,&#xa;      &quot;actorLineColor&quot;: &quot;#666&quot;,&#xa;      &quot;signalColor&quot;: &quot;#333&quot;,&#xa;      &quot;signalTextColor&quot;: &quot;#333&quot;,&#xa;      &quot;labelBoxBkgColor&quot;: &quot;#eee&quot;,&#xa;      &quot;labelBoxBorderColor&quot;: &quot;hsl(0, 0%, 83%)&quot;,&#xa;      &quot;labelTextColor&quot;: &quot;#333&quot;,&#xa;      &quot;loopTextColor&quot;: &quot;#333&quot;,&#xa;      &quot;noteBorderColor&quot;: &quot;#999&quot;,&#xa;      &quot;noteBkgColor&quot;: &quot;#666&quot;,&#xa;      &quot;noteTextColor&quot;: &quot;#fff&quot;,&#xa;      &quot;activationBorderColor&quot;: &quot;#666&quot;,&#xa;      &quot;activationBkgColor&quot;: &quot;#f4f4f4&quot;,&#xa;      &quot;sequenceNumberColor&quot;: &quot;white&quot;,&#xa;      &quot;sectionBkgColor&quot;: &quot;hsl(0, 0%, 73.9215686275%)&quot;,&#xa;      &quot;altSectionBkgColor&quot;: &quot;white&quot;,&#xa;      &quot;sectionBkgColor2&quot;: &quot;hsl(0, 0%, 73.9215686275%)&quot;,&#xa;      &quot;excludeBkgColor&quot;: &quot;#eeeeee&quot;,&#xa;      &quot;taskBorderColor&quot;: &quot;hsl(0, 0%, 33.9215686275%)&quot;,&#xa;      &quot;taskBkgColor&quot;: &quot;#707070&quot;,&#xa;      &quot;taskTextLightColor&quot;: &quot;white&quot;,&#xa;      &quot;taskTextColor&quot;: &quot;white&quot;,&#xa;      &quot;taskTextDarkColor&quot;: &quot;#333&quot;,&#xa;      &quot;taskTextOutsideColor&quot;: &quot;#333&quot;,&#xa;      &quot;taskTextClickableColor&quot;: &quot;#003163&quot;,&#xa;      &quot;activeTaskBorderColor&quot;: &quot;hsl(0, 0%, 33.9215686275%)&quot;,&#xa;      &quot;activeTaskBkgColor&quot;: &quot;#eee&quot;,&#xa;      &quot;gridColor&quot;: &quot;hsl(0, 0%, 90%)&quot;,&#xa;      &quot;doneTaskBkgColor&quot;: &quot;#bbb&quot;,&#xa;      &quot;doneTaskBorderColor&quot;: &quot;#666&quot;,&#xa;      &quot;critBkgColor&quot;: &quot;#d42&quot;,&#xa;      &quot;critBorderColor&quot;: &quot;hsl(10.9090909091, 73.3333333333%, 40%)&quot;,&#xa;      &quot;todayLineColor&quot;: &quot;#d42&quot;,&#xa;      &quot;personBorder&quot;: &quot;hsl(0, 0%, 83.3333333333%)&quot;,&#xa;      &quot;personBkg&quot;: &quot;#eee&quot;,&#xa;      &quot;labelColor&quot;: &quot;black&quot;,&#xa;      &quot;errorBkgColor&quot;: &quot;#552222&quot;,&#xa;      &quot;errorTextColor&quot;: &quot;#552222&quot;,&#xa;      &quot;cScale0&quot;: &quot;#555&quot;,&#xa;      &quot;cScale1&quot;: &quot;#F4F4F4&quot;,&#xa;      &quot;cScale2&quot;: &quot;#555&quot;,&#xa;      &quot;cScale3&quot;: &quot;#BBB&quot;,&#xa;      &quot;cScale4&quot;: &quot;#777&quot;,&#xa;      &quot;cScale5&quot;: &quot;#999&quot;,&#xa;      &quot;cScale6&quot;: &quot;#DDD&quot;,&#xa;      &quot;cScale7&quot;: &quot;#FFF&quot;,&#xa;      &quot;cScale8&quot;: &quot;#DDD&quot;,&#xa;      &quot;cScale9&quot;: &quot;#BBB&quot;,&#xa;      &quot;cScale10&quot;: &quot;#999&quot;,&#xa;      &quot;cScale11&quot;: &quot;#777&quot;,&#xa;      &quot;cScaleInv0&quot;: &quot;#aaaaaa&quot;,&#xa;      &quot;cScaleInv1&quot;: &quot;#0b0b0b&quot;,&#xa;      &quot;cScaleInv2&quot;: &quot;#aaaaaa&quot;,&#xa;      &quot;cScaleInv3&quot;: &quot;#444444&quot;,&#xa;      &quot;cScaleInv4&quot;: &quot;#888888&quot;,&#xa;      &quot;cScaleInv5&quot;: &quot;#666666&quot;,&#xa;      &quot;cScaleInv6&quot;: &quot;#222222&quot;,&#xa;      &quot;cScaleInv7&quot;: &quot;#000000&quot;,&#xa;      &quot;cScaleInv8&quot;: &quot;#222222&quot;,&#xa;      &quot;cScaleInv9&quot;: &quot;#444444&quot;,&#xa;      &quot;cScaleInv10&quot;: &quot;#666666&quot;,&#xa;      &quot;cScaleInv11&quot;: &quot;#888888&quot;,&#xa;      &quot;cScalePeer0&quot;: &quot;hsl(0, 0%, 23.3333333333%)&quot;,&#xa;      &quot;cScalePeer1&quot;: &quot;hsl(0, 0%, 85.6862745098%)&quot;,&#xa;      &quot;cScalePeer2&quot;: &quot;hsl(0, 0%, 23.3333333333%)&quot;,&#xa;      &quot;cScalePeer3&quot;: &quot;hsl(0, 0%, 63.3333333333%)&quot;,&#xa;      &quot;cScalePeer4&quot;: &quot;hsl(0, 0%, 36.6666666667%)&quot;,&#xa;      &quot;cScalePeer5&quot;: &quot;hsl(0, 0%, 50%)&quot;,&#xa;      &quot;cScalePeer6&quot;: &quot;hsl(0, 0%, 76.6666666667%)&quot;,&#xa;      &quot;cScalePeer7&quot;: &quot;hsl(0, 0%, 90%)&quot;,&#xa;      &quot;cScalePeer8&quot;: &quot;hsl(0, 0%, 76.6666666667%)&quot;,&#xa;      &quot;cScalePeer9&quot;: &quot;hsl(0, 0%, 63.3333333333%)&quot;,&#xa;      &quot;cScalePeer10&quot;: &quot;hsl(0, 0%, 50%)&quot;,&#xa;      &quot;cScalePeer11&quot;: &quot;hsl(0, 0%, 36.6666666667%)&quot;,&#xa;      &quot;scaleLabelColor&quot;: &quot;#333&quot;,&#xa;      &quot;cScaleLabel0&quot;: &quot;#F4F4F4&quot;,&#xa;      &quot;cScaleLabel2&quot;: &quot;#F4F4F4&quot;,&#xa;      &quot;cScaleLabel1&quot;: &quot;#333&quot;,&#xa;      &quot;cScaleLabel3&quot;: &quot;#333&quot;,&#xa;      &quot;cScaleLabel4&quot;: &quot;#333&quot;,&#xa;      &quot;cScaleLabel5&quot;: &quot;#333&quot;,&#xa;      &quot;cScaleLabel6&quot;: &quot;#333&quot;,&#xa;      &quot;cScaleLabel7&quot;: &quot;#333&quot;,&#xa;      &quot;cScaleLabel8&quot;: &quot;#333&quot;,&#xa;      &quot;cScaleLabel9&quot;: &quot;#333&quot;,&#xa;      &quot;cScaleLabel10&quot;: &quot;#333&quot;,&#xa;      &quot;cScaleLabel11&quot;: &quot;#333&quot;,&#xa;      &quot;surface0&quot;: &quot;hsl(0, 0%, 88.3333333333%)&quot;,&#xa;      &quot;surfacePeer0&quot;: &quot;hsl(0, 0%, 85.3333333333%)&quot;,&#xa;      &quot;surface1&quot;: &quot;hsl(0, 0%, 83.3333333333%)&quot;,&#xa;      &quot;surfacePeer1&quot;: &quot;hsl(0, 0%, 80.3333333333%)&quot;,&#xa;      &quot;surface2&quot;: &quot;hsl(0, 0%, 78.3333333333%)&quot;,&#xa;      &quot;surfacePeer2&quot;: &quot;hsl(0, 0%, 75.3333333333%)&quot;,&#xa;      &quot;surface3&quot;: &quot;hsl(0, 0%, 73.3333333333%)&quot;,&#xa;      &quot;surfacePeer3&quot;: &quot;hsl(0, 0%, 70.3333333333%)&quot;,&#xa;      &quot;surface4&quot;: &quot;hsl(0, 0%, 68.3333333333%)&quot;,&#xa;      &quot;surfacePeer4&quot;: &quot;hsl(0, 0%, 65.3333333333%)&quot;,&#xa;      &quot;transitionColor&quot;: &quot;#000&quot;,&#xa;      &quot;transitionLabelColor&quot;: &quot;#000000&quot;,&#xa;      &quot;stateLabelColor&quot;: &quot;#111111&quot;,&#xa;      &quot;stateBkg&quot;: &quot;#eee&quot;,&#xa;      &quot;labelBackgroundColor&quot;: &quot;#eee&quot;,&#xa;      &quot;compositeBackground&quot;: &quot;#ffffff&quot;,&#xa;      &quot;altBackground&quot;: &quot;#f4f4f4&quot;,&#xa;      &quot;compositeTitleBackground&quot;: &quot;#eee&quot;,&#xa;      &quot;stateBorder&quot;: &quot;#000&quot;,&#xa;      &quot;innerEndBackground&quot;: &quot;hsl(0, 0%, 83.3333333333%)&quot;,&#xa;      &quot;specialStateColor&quot;: &quot;#222&quot;,&#xa;      &quot;classText&quot;: &quot;#111111&quot;,&#xa;      &quot;fillType0&quot;: &quot;#eee&quot;,&#xa;      &quot;fillType1&quot;: &quot;hsl(0, 0%, 98.9215686275%)&quot;,&#xa;      &quot;fillType2&quot;: &quot;hsl(64, 0%, 93.3333333333%)&quot;,&#xa;      &quot;fillType3&quot;: &quot;hsl(64, 0%, 98.9215686275%)&quot;,&#xa;      &quot;fillType4&quot;: &quot;hsl(-64, 0%, 93.3333333333%)&quot;,&#xa;      &quot;fillType5&quot;: &quot;hsl(-64, 0%, 98.9215686275%)&quot;,&#xa;      &quot;fillType6&quot;: &quot;hsl(128, 0%, 93.3333333333%)&quot;,&#xa;      &quot;fillType7&quot;: &quot;hsl(128, 0%, 98.9215686275%)&quot;,&#xa;      &quot;pie0&quot;: &quot;#555&quot;,&#xa;      &quot;pie1&quot;: &quot;#F4F4F4&quot;,&#xa;      &quot;pie2&quot;: &quot;#555&quot;,&#xa;      &quot;pie3&quot;: &quot;#BBB&quot;,&#xa;      &quot;pie4&quot;: &quot;#777&quot;,&#xa;      &quot;pie5&quot;: &quot;#999&quot;,&#xa;      &quot;pie6&quot;: &quot;#DDD&quot;,&#xa;      &quot;pie7&quot;: &quot;#FFF&quot;,&#xa;      &quot;pie8&quot;: &quot;#DDD&quot;,&#xa;      &quot;pie9&quot;: &quot;#BBB&quot;,&#xa;      &quot;pie10&quot;: &quot;#999&quot;,&#xa;      &quot;pie11&quot;: &quot;#777&quot;,&#xa;      &quot;pie12&quot;: &quot;#555&quot;,&#xa;      &quot;pieTitleTextSize&quot;: &quot;25px&quot;,&#xa;      &quot;pieTitleTextColor&quot;: &quot;#333&quot;,&#xa;      &quot;pieSectionTextSize&quot;: &quot;17px&quot;,&#xa;      &quot;pieSectionTextColor&quot;: &quot;#000000&quot;,&#xa;      &quot;pieLegendTextSize&quot;: &quot;17px&quot;,&#xa;      &quot;pieLegendTextColor&quot;: &quot;#333&quot;,&#xa;      &quot;pieStrokeColor&quot;: &quot;black&quot;,&#xa;      &quot;pieStrokeWidth&quot;: &quot;2px&quot;,&#xa;      &quot;pieOuterStrokeWidth&quot;: &quot;2px&quot;,&#xa;      &quot;pieOuterStrokeColor&quot;: &quot;black&quot;,&#xa;      &quot;pieOpacity&quot;: &quot;0.7&quot;,&#xa;      &quot;quadrant1Fill&quot;: &quot;#eee&quot;,&#xa;      &quot;quadrant2Fill&quot;: &quot;#f3f3f3&quot;,&#xa;      &quot;quadrant3Fill&quot;: &quot;#f8f8f8&quot;,&#xa;      &quot;quadrant4Fill&quot;: &quot;#fdfdfd&quot;,&#xa;      &quot;quadrant1TextFill&quot;: &quot;#111111&quot;,&#xa;      &quot;quadrant2TextFill&quot;: &quot;#0c0c0c&quot;,&#xa;      &quot;quadrant3TextFill&quot;: &quot;#070707&quot;,&#xa;      &quot;quadrant4TextFill&quot;: &quot;#020202&quot;,&#xa;      &quot;quadrantPointFill&quot;: &quot;hsl(0, 0%, NaN%)&quot;,&#xa;      &quot;quadrantPointTextFill&quot;: &quot;#111111&quot;,&#xa;      &quot;quadrantXAxisTextFill&quot;: &quot;#111111&quot;,&#xa;      &quot;quadrantYAxisTextFill&quot;: &quot;#111111&quot;,&#xa;      &quot;quadrantInternalBorderStrokeFill&quot;: &quot;hsl(0, 0%, 83.3333333333%)&quot;,&#xa;      &quot;quadrantExternalBorderStrokeFill&quot;: &quot;hsl(0, 0%, 83.3333333333%)&quot;,&#xa;      &quot;quadrantTitleFill&quot;: &quot;#111111&quot;,&#xa;      &quot;xyChart&quot;: {&#xa;        &quot;backgroundColor&quot;: &quot;#ffffff&quot;,&#xa;        &quot;titleColor&quot;: &quot;#111111&quot;,&#xa;        &quot;xAxisTitleColor&quot;: &quot;#111111&quot;,&#xa;        &quot;xAxisLabelColor&quot;: &quot;#111111&quot;,&#xa;        &quot;xAxisTickColor&quot;: &quot;#111111&quot;,&#xa;        &quot;xAxisLineColor&quot;: &quot;#111111&quot;,&#xa;        &quot;yAxisTitleColor&quot;: &quot;#111111&quot;,&#xa;        &quot;yAxisLabelColor&quot;: &quot;#111111&quot;,&#xa;        &quot;yAxisTickColor&quot;: &quot;#111111&quot;,&#xa;        &quot;yAxisLineColor&quot;: &quot;#111111&quot;,&#xa;        &quot;plotColorPalette&quot;: &quot;#EEE,#6BB8E4,#8ACB88,#C7ACD6,#E8DCC2,#FFB2A8,#FFF380,#7E8D91,#FFD8B1,#FAF3E0&quot;&#xa;      },&#xa;      &quot;requirementBackground&quot;: &quot;#eee&quot;,&#xa;      &quot;requirementBorderColor&quot;: &quot;hsl(0, 0%, 83.3333333333%)&quot;,&#xa;      &quot;requirementBorderSize&quot;: &quot;1&quot;,&#xa;      &quot;requirementTextColor&quot;: &quot;#111111&quot;,&#xa;      &quot;relationColor&quot;: &quot;#666&quot;,&#xa;      &quot;relationLabelBackground&quot;: &quot;white&quot;,&#xa;      &quot;relationLabelColor&quot;: &quot;#333&quot;,&#xa;      &quot;git0&quot;: &quot;hsl(0, 0%, 70.6862745098%)&quot;,&#xa;      &quot;git1&quot;: &quot;#555&quot;,&#xa;      &quot;git2&quot;: &quot;#BBB&quot;,&#xa;      &quot;git3&quot;: &quot;#777&quot;,&#xa;      &quot;git4&quot;: &quot;#999&quot;,&#xa;      &quot;git5&quot;: &quot;#DDD&quot;,&#xa;      &quot;git6&quot;: &quot;#FFF&quot;,&#xa;      &quot;git7&quot;: &quot;#DDD&quot;,&#xa;      &quot;gitInv0&quot;: &quot;rgb(74.75, 74.75, 74.75)&quot;,&#xa;      &quot;gitInv1&quot;: &quot;#aaaaaa&quot;,&#xa;      &quot;gitInv2&quot;: &quot;#444444&quot;,&#xa;      &quot;gitInv3&quot;: &quot;#888888&quot;,&#xa;      &quot;gitInv4&quot;: &quot;#666666&quot;,&#xa;      &quot;gitInv5&quot;: &quot;#222222&quot;,&#xa;      &quot;gitInv6&quot;: &quot;#000000&quot;,&#xa;      &quot;gitInv7&quot;: &quot;#222222&quot;,&#xa;      &quot;branchLabelColor&quot;: &quot;#333&quot;,&#xa;      &quot;gitBranchLabel0&quot;: &quot;#333&quot;,&#xa;      &quot;gitBranchLabel1&quot;: &quot;white&quot;,&#xa;      &quot;gitBranchLabel2&quot;: &quot;#333&quot;,&#xa;      &quot;gitBranchLabel3&quot;: &quot;white&quot;,&#xa;      &quot;gitBranchLabel4&quot;: &quot;#333&quot;,&#xa;      &quot;gitBranchLabel5&quot;: &quot;#333&quot;,&#xa;      &quot;gitBranchLabel6&quot;: &quot;#333&quot;,&#xa;      &quot;gitBranchLabel7&quot;: &quot;#333&quot;,&#xa;      &quot;tagLabelColor&quot;: &quot;#111111&quot;,&#xa;      &quot;tagLabelBackground&quot;: &quot;#eee&quot;,&#xa;      &quot;tagLabelBorder&quot;: &quot;hsl(0, 0%, 83.3333333333%)&quot;,&#xa;      &quot;tagLabelFontSize&quot;: &quot;10px&quot;,&#xa;      &quot;commitLabelColor&quot;: &quot;rgb(2.7499999999, 2.7499999999, 2.7499999999)&quot;,&#xa;      &quot;commitLabelBackground&quot;: &quot;hsl(0, 0%, 98.9215686275%)&quot;,&#xa;      &quot;commitLabelFontSize&quot;: &quot;10px&quot;,&#xa;      &quot;attributeBackgroundColorOdd&quot;: &quot;#ffffff&quot;,&#xa;      &quot;attributeBackgroundColorEven&quot;: &quot;#f2f2f2&quot;&#xa;    }&#xa;  }&#xa;}" id="SUeHKCwlfA7Jm6eOFoHr-2">
          <mxCell style="shape=image;noLabel=1;verticalAlign=top;imageAspect=1;image=data:image/svg+xml,PHN2ZyBhcmlhLXJvbGVkZXNjcmlwdGlvbj0iZmxvd2NoYXJ0LXYyIiByb2xlPSJncmFwaGljcy1kb2N1bWVudCBkb2N1bWVudCIgdmlld0JveD0iLTggLTggMjkxMC41OTM3NSA0NzUuODYzMjgxMjUiIHN0eWxlPSJtYXgtd2lkdGg6IDI5MTAuNTkzNzVweDsiIHhtbG5zPSJodHRwOi8vd3d3LnczLm9yZy8yMDAwL3N2ZyIgd2lkdGg9IjEwMCUiIGlkPSJnZU1lcm1haWRPdXRwdXQtMTcyMDk3NDkzOTA1OCI+PHN0eWxlPiNnZU1lcm1haWRPdXRwdXQtMTcyMDk3NDkzOTA1OHtmb250LWZhbWlseToidHJlYnVjaGV0IG1zIix2ZXJkYW5hLGFyaWFsLHNhbnMtc2VyaWY7Zm9udC1zaXplOjE2cHg7ZmlsbDojMDAwMDAwO30jZ2VNZXJtYWlkT3V0cHV0LTE3MjA5NzQ5MzkwNTggLmVycm9yLWljb257ZmlsbDojNTUyMjIyO30jZ2VNZXJtYWlkT3V0cHV0LTE3MjA5NzQ5MzkwNTggLmVycm9yLXRleHR7ZmlsbDojNTUyMjIyO3N0cm9rZTojNTUyMjIyO30jZ2VNZXJtYWlkT3V0cHV0LTE3MjA5NzQ5MzkwNTggLmVkZ2UtdGhpY2tuZXNzLW5vcm1hbHtzdHJva2Utd2lkdGg6MnB4O30jZ2VNZXJtYWlkT3V0cHV0LTE3MjA5NzQ5MzkwNTggLmVkZ2UtdGhpY2tuZXNzLXRoaWNre3N0cm9rZS13aWR0aDozLjVweDt9I2dlTWVybWFpZE91dHB1dC0xNzIwOTc0OTM5MDU4IC5lZGdlLXBhdHRlcm4tc29saWR7c3Ryb2tlLWRhc2hhcnJheTowO30jZ2VNZXJtYWlkT3V0cHV0LTE3MjA5NzQ5MzkwNTggLmVkZ2UtcGF0dGVybi1kYXNoZWR7c3Ryb2tlLWRhc2hhcnJheTozO30jZ2VNZXJtYWlkT3V0cHV0LTE3MjA5NzQ5MzkwNTggLmVkZ2UtcGF0dGVybi1kb3R0ZWR7c3Ryb2tlLWRhc2hhcnJheToyO30jZ2VNZXJtYWlkT3V0cHV0LTE3MjA5NzQ5MzkwNTggLm1hcmtlcntmaWxsOiM2NjY7c3Ryb2tlOiM2NjY7fSNnZU1lcm1haWRPdXRwdXQtMTcyMDk3NDkzOTA1OCAubWFya2VyLmNyb3Nze3N0cm9rZTojNjY2O30jZ2VNZXJtYWlkT3V0cHV0LTE3MjA5NzQ5MzkwNTggc3Zne2ZvbnQtZmFtaWx5OiJ0cmVidWNoZXQgbXMiLHZlcmRhbmEsYXJpYWwsc2Fucy1zZXJpZjtmb250LXNpemU6MTZweDt9I2dlTWVybWFpZE91dHB1dC0xNzIwOTc0OTM5MDU4IC5sYWJlbHtmb250LWZhbWlseToidHJlYnVjaGV0IG1zIix2ZXJkYW5hLGFyaWFsLHNhbnMtc2VyaWY7Y29sb3I6IzAwMDAwMDt9I2dlTWVybWFpZE91dHB1dC0xNzIwOTc0OTM5MDU4IC5jbHVzdGVyLWxhYmVsIHRleHR7ZmlsbDojMzMzO30jZ2VNZXJtYWlkT3V0cHV0LTE3MjA5NzQ5MzkwNTggLmNsdXN0ZXItbGFiZWwgc3BhbiwjZ2VNZXJtYWlkT3V0cHV0LTE3MjA5NzQ5MzkwNTggcHtjb2xvcjojMzMzO30jZ2VNZXJtYWlkT3V0cHV0LTE3MjA5NzQ5MzkwNTggLmxhYmVsIHRleHQsI2dlTWVybWFpZE91dHB1dC0xNzIwOTc0OTM5MDU4IHNwYW4sI2dlTWVybWFpZE91dHB1dC0xNzIwOTc0OTM5MDU4IHB7ZmlsbDojMDAwMDAwO2NvbG9yOiMwMDAwMDA7fSNnZU1lcm1haWRPdXRwdXQtMTcyMDk3NDkzOTA1OCAubm9kZSByZWN0LCNnZU1lcm1haWRPdXRwdXQtMTcyMDk3NDkzOTA1OCAubm9kZSBjaXJjbGUsI2dlTWVybWFpZE91dHB1dC0xNzIwOTc0OTM5MDU4IC5ub2RlIGVsbGlwc2UsI2dlTWVybWFpZE91dHB1dC0xNzIwOTc0OTM5MDU4IC5ub2RlIHBvbHlnb24sI2dlTWVybWFpZE91dHB1dC0xNzIwOTc0OTM5MDU4IC5ub2RlIHBhdGh7ZmlsbDojZWVlO3N0cm9rZTojOTk5O3N0cm9rZS13aWR0aDoxcHg7fSNnZU1lcm1haWRPdXRwdXQtMTcyMDk3NDkzOTA1OCAuZmxvd2NoYXJ0LWxhYmVsIHRleHR7dGV4dC1hbmNob3I6bWlkZGxlO30jZ2VNZXJtYWlkT3V0cHV0LTE3MjA5NzQ5MzkwNTggLm5vZGUgLmthdGV4IHBhdGh7ZmlsbDojMDAwO3N0cm9rZTojMDAwO3N0cm9rZS13aWR0aDoxcHg7fSNnZU1lcm1haWRPdXRwdXQtMTcyMDk3NDkzOTA1OCAubm9kZSAubGFiZWx7dGV4dC1hbGlnbjpjZW50ZXI7fSNnZU1lcm1haWRPdXRwdXQtMTcyMDk3NDkzOTA1OCAubm9kZS5jbGlja2FibGV7Y3Vyc29yOnBvaW50ZXI7fSNnZU1lcm1haWRPdXRwdXQtMTcyMDk3NDkzOTA1OCAuYXJyb3doZWFkUGF0aHtmaWxsOiMzMzMzMzM7fSNnZU1lcm1haWRPdXRwdXQtMTcyMDk3NDkzOTA1OCAuZWRnZVBhdGggLnBhdGh7c3Ryb2tlOiM2NjY7c3Ryb2tlLXdpZHRoOjIuMHB4O30jZ2VNZXJtYWlkT3V0cHV0LTE3MjA5NzQ5MzkwNTggLmZsb3djaGFydC1saW5re3N0cm9rZTojNjY2O2ZpbGw6bm9uZTt9I2dlTWVybWFpZE91dHB1dC0xNzIwOTc0OTM5MDU4IC5lZGdlTGFiZWx7YmFja2dyb3VuZC1jb2xvcjp3aGl0ZTt0ZXh0LWFsaWduOmNlbnRlcjt9I2dlTWVybWFpZE91dHB1dC0xNzIwOTc0OTM5MDU4IC5lZGdlTGFiZWwgcmVjdHtvcGFjaXR5OjAuNTtiYWNrZ3JvdW5kLWNvbG9yOndoaXRlO2ZpbGw6d2hpdGU7fSNnZU1lcm1haWRPdXRwdXQtMTcyMDk3NDkzOTA1OCAubGFiZWxCa2d7YmFja2dyb3VuZC1jb2xvcjpyZ2JhKDI1NSwgMjU1LCAyNTUsIDAuNSk7fSNnZU1lcm1haWRPdXRwdXQtMTcyMDk3NDkzOTA1OCAuY2x1c3RlciByZWN0e2ZpbGw6aHNsKDAsIDAlLCA5OC45MjE1Njg2Mjc1JSk7c3Ryb2tlOiM3MDcwNzA7c3Ryb2tlLXdpZHRoOjFweDt9I2dlTWVybWFpZE91dHB1dC0xNzIwOTc0OTM5MDU4IC5jbHVzdGVyIHRleHR7ZmlsbDojMzMzO30jZ2VNZXJtYWlkT3V0cHV0LTE3MjA5NzQ5MzkwNTggLmNsdXN0ZXIgc3BhbiwjZ2VNZXJtYWlkT3V0cHV0LTE3MjA5NzQ5MzkwNTggcHtjb2xvcjojMzMzO30jZ2VNZXJtYWlkT3V0cHV0LTE3MjA5NzQ5MzkwNTggZGl2Lm1lcm1haWRUb29sdGlwe3Bvc2l0aW9uOmFic29sdXRlO3RleHQtYWxpZ246Y2VudGVyO21heC13aWR0aDoyMDBweDtwYWRkaW5nOjJweDtmb250LWZhbWlseToidHJlYnVjaGV0IG1zIix2ZXJkYW5hLGFyaWFsLHNhbnMtc2VyaWY7Zm9udC1zaXplOjEycHg7YmFja2dyb3VuZDpoc2woLTE2MCwgMCUsIDkzLjMzMzMzMzMzMzMlKTtib3JkZXI6MXB4IHNvbGlkICM3MDcwNzA7Ym9yZGVyLXJhZGl1czoycHg7cG9pbnRlci1ldmVudHM6bm9uZTt6LWluZGV4OjEwMDt9I2dlTWVybWFpZE91dHB1dC0xNzIwOTc0OTM5MDU4IC5mbG93Y2hhcnRUaXRsZVRleHR7dGV4dC1hbmNob3I6bWlkZGxlO2ZvbnQtc2l6ZToxOHB4O2ZpbGw6IzAwMDAwMDt9I2dlTWVybWFpZE91dHB1dC0xNzIwOTc0OTM5MDU4IDpyb290ey0tbWVybWFpZC1mb250LWZhbWlseToidHJlYnVjaGV0IG1zIix2ZXJkYW5hLGFyaWFsLHNhbnMtc2VyaWY7fTwvc3R5bGU+PGc+PG1hcmtlciBvcmllbnQ9ImF1dG8iIG1hcmtlckhlaWdodD0iMTIiIG1hcmtlcldpZHRoPSIxMiIgbWFya2VyVW5pdHM9InVzZXJTcGFjZU9uVXNlIiByZWZZPSI1IiByZWZYPSI2IiB2aWV3Qm94PSIwIDAgMTAgMTAiIGNsYXNzPSJtYXJrZXIgZmxvd2NoYXJ0IiBpZD0iZ2VNZXJtYWlkT3V0cHV0LTE3MjA5NzQ5MzkwNThfZmxvd2NoYXJ0LXBvaW50RW5kIj48cGF0aCBzdHlsZT0ic3Ryb2tlLXdpZHRoOiAxOyBzdHJva2UtZGFzaGFycmF5OiAxLCAwOyIgY2xhc3M9ImFycm93TWFya2VyUGF0aCIgZD0iTSAwIDAgTCAxMCA1IEwgMCAxMCB6Ij48L3BhdGg+PC9tYXJrZXI+PG1hcmtlciBvcmllbnQ9ImF1dG8iIG1hcmtlckhlaWdodD0iMTIiIG1hcmtlcldpZHRoPSIxMiIgbWFya2VyVW5pdHM9InVzZXJTcGFjZU9uVXNlIiByZWZZPSI1IiByZWZYPSI0LjUiIHZpZXdCb3g9IjAgMCAxMCAxMCIgY2xhc3M9Im1hcmtlciBmbG93Y2hhcnQiIGlkPSJnZU1lcm1haWRPdXRwdXQtMTcyMDk3NDkzOTA1OF9mbG93Y2hhcnQtcG9pbnRTdGFydCI+PHBhdGggc3R5bGU9InN0cm9rZS13aWR0aDogMTsgc3Ryb2tlLWRhc2hhcnJheTogMSwgMDsiIGNsYXNzPSJhcnJvd01hcmtlclBhdGgiIGQ9Ik0gMCA1IEwgMTAgMTAgTCAxMCAwIHoiPjwvcGF0aD48L21hcmtlcj48bWFya2VyIG9yaWVudD0iYXV0byIgbWFya2VySGVpZ2h0PSIxMSIgbWFya2VyV2lkdGg9IjExIiBtYXJrZXJVbml0cz0idXNlclNwYWNlT25Vc2UiIHJlZlk9IjUiIHJlZlg9IjExIiB2aWV3Qm94PSIwIDAgMTAgMTAiIGNsYXNzPSJtYXJrZXIgZmxvd2NoYXJ0IiBpZD0iZ2VNZXJtYWlkT3V0cHV0LTE3MjA5NzQ5MzkwNThfZmxvd2NoYXJ0LWNpcmNsZUVuZCI+PGNpcmNsZSBzdHlsZT0ic3Ryb2tlLXdpZHRoOiAxOyBzdHJva2UtZGFzaGFycmF5OiAxLCAwOyIgY2xhc3M9ImFycm93TWFya2VyUGF0aCIgcj0iNSIgY3k9IjUiIGN4PSI1Ij48L2NpcmNsZT48L21hcmtlcj48bWFya2VyIG9yaWVudD0iYXV0byIgbWFya2VySGVpZ2h0PSIxMSIgbWFya2VyV2lkdGg9IjExIiBtYXJrZXJVbml0cz0idXNlclNwYWNlT25Vc2UiIHJlZlk9IjUiIHJlZlg9Ii0xIiB2aWV3Qm94PSIwIDAgMTAgMTAiIGNsYXNzPSJtYXJrZXIgZmxvd2NoYXJ0IiBpZD0iZ2VNZXJtYWlkT3V0cHV0LTE3MjA5NzQ5MzkwNThfZmxvd2NoYXJ0LWNpcmNsZVN0YXJ0Ij48Y2lyY2xlIHN0eWxlPSJzdHJva2Utd2lkdGg6IDE7IHN0cm9rZS1kYXNoYXJyYXk6IDEsIDA7IiBjbGFzcz0iYXJyb3dNYXJrZXJQYXRoIiByPSI1IiBjeT0iNSIgY3g9IjUiPjwvY2lyY2xlPjwvbWFya2VyPjxtYXJrZXIgb3JpZW50PSJhdXRvIiBtYXJrZXJIZWlnaHQ9IjExIiBtYXJrZXJXaWR0aD0iMTEiIG1hcmtlclVuaXRzPSJ1c2VyU3BhY2VPblVzZSIgcmVmWT0iNS4yIiByZWZYPSIxMiIgdmlld0JveD0iMCAwIDExIDExIiBjbGFzcz0ibWFya2VyIGNyb3NzIGZsb3djaGFydCIgaWQ9ImdlTWVybWFpZE91dHB1dC0xNzIwOTc0OTM5MDU4X2Zsb3djaGFydC1jcm9zc0VuZCI+PHBhdGggc3R5bGU9InN0cm9rZS13aWR0aDogMjsgc3Ryb2tlLWRhc2hhcnJheTogMSwgMDsiIGNsYXNzPSJhcnJvd01hcmtlclBhdGgiIGQ9Ik0gMSwxIGwgOSw5IE0gMTAsMSBsIC05LDkiPjwvcGF0aD48L21hcmtlcj48bWFya2VyIG9yaWVudD0iYXV0byIgbWFya2VySGVpZ2h0PSIxMSIgbWFya2VyV2lkdGg9IjExIiBtYXJrZXJVbml0cz0idXNlclNwYWNlT25Vc2UiIHJlZlk9IjUuMiIgcmVmWD0iLTEiIHZpZXdCb3g9IjAgMCAxMSAxMSIgY2xhc3M9Im1hcmtlciBjcm9zcyBmbG93Y2hhcnQiIGlkPSJnZU1lcm1haWRPdXRwdXQtMTcyMDk3NDkzOTA1OF9mbG93Y2hhcnQtY3Jvc3NTdGFydCI+PHBhdGggc3R5bGU9InN0cm9rZS13aWR0aDogMjsgc3Ryb2tlLWRhc2hhcnJheTogMSwgMDsiIGNsYXNzPSJhcnJvd01hcmtlclBhdGgiIGQ9Ik0gMSwxIGwgOSw5IE0gMTAsMSBsIC05LDkiPjwvcGF0aD48L21hcmtlcj48ZyBjbGFzcz0icm9vdCI+PGcgY2xhc3M9ImNsdXN0ZXJzIj48L2c+PGcgY2xhc3M9ImVkZ2VQYXRocyI+PHBhdGggbWFya2VyLWVuZD0idXJsKCNnZU1lcm1haWRPdXRwdXQtMTcyMDk3NDkzOTA1OF9mbG93Y2hhcnQtcG9pbnRFbmQpIiBzdHlsZT0iZmlsbDpub25lOyIgY2xhc3M9ImVkZ2UtdGhpY2tuZXNzLW5vcm1hbCBlZGdlLXBhdHRlcm4tc29saWQgZmxvd2NoYXJ0LWxpbmsgTFMtQSBMRS1CIiBpZD0iTC1BLUItMCIgZD0iTTEzMi4zMjgsMjQ1LjU0N0wxMzYuNDk1LDI0NS41NDdDMTQwLjY2MSwyNDUuNTQ3LDE0OC45OTUsMjQ1LjU0NywxNTYuNDQ1LDI0NS41NDdDMTYzLjg5NSwyNDUuNTQ3LDE3MC40NjEsMjQ1LjU0NywxNzMuNzQ1LDI0NS41NDdMMTc3LjAyOCwyNDUuNTQ3Ij48L3BhdGg+PHBhdGggbWFya2VyLWVuZD0idXJsKCNnZU1lcm1haWRPdXRwdXQtMTcyMDk3NDkzOTA1OF9mbG93Y2hhcnQtcG9pbnRFbmQpIiBzdHlsZT0iZmlsbDpub25lOyIgY2xhc3M9ImVkZ2UtdGhpY2tuZXNzLW5vcm1hbCBlZGdlLXBhdHRlcm4tc29saWQgZmxvd2NoYXJ0LWxpbmsgTFMtQiBMRS1DIiBpZD0iTC1CLUMtMCIgZD0iTTI5My42MDIsMjQ1LjU0N0wyOTcuNzY4LDI0NS41NDdDMzAxLjkzNSwyNDUuNTQ3LDMxMC4yNjgsMjQ1LjU0NywzMTcuNzE4LDI0NS41NDdDMzI1LjE2OCwyNDUuNTQ3LDMzMS43MzUsMjQ1LjU0NywzMzUuMDE4LDI0NS41NDdMMzM4LjMwMiwyNDUuNTQ3Ij48L3BhdGg+PHBhdGggbWFya2VyLWVuZD0idXJsKCNnZU1lcm1haWRPdXRwdXQtMTcyMDk3NDkzOTA1OF9mbG93Y2hhcnQtcG9pbnRFbmQpIiBzdHlsZT0iZmlsbDpub25lOyIgY2xhc3M9ImVkZ2UtdGhpY2tuZXNzLW5vcm1hbCBlZGdlLXBhdHRlcm4tc29saWQgZmxvd2NoYXJ0LWxpbmsgTFMtQyBMRS1EIiBpZD0iTC1DLUQtMCIgZD0iTTQ1Mi45OTIsMjQ1LjU0N0w0NTcuMTU5LDI0NS41NDdDNDYxLjMyNiwyNDUuNTQ3LDQ2OS42NTksMjQ1LjU0Nyw0NzcuMTA5LDI0NS41NDdDNDg0LjU1OSwyNDUuNTQ3LDQ5MS4xMjYsMjQ1LjU0Nyw0OTQuNDA5LDI0NS41NDdMNDk3LjY5MiwyNDUuNTQ3Ij48L3BhdGg+PHBhdGggbWFya2VyLWVuZD0idXJsKCNnZU1lcm1haWRPdXRwdXQtMTcyMDk3NDkzOTA1OF9mbG93Y2hhcnQtcG9pbnRFbmQpIiBzdHlsZT0iZmlsbDpub25lOyIgY2xhc3M9ImVkZ2UtdGhpY2tuZXNzLW5vcm1hbCBlZGdlLXBhdHRlcm4tc29saWQgZmxvd2NoYXJ0LWxpbmsgTFMtRCBMRS1FIiBpZD0iTC1ELUUtMCIgZD0iTTY0Ni40OTIsMjQ1LjU0N0w2NTAuNjU5LDI0NS41NDdDNjU0LjgyNiwyNDUuNTQ3LDY2My4xNTksMjQ1LjU0Nyw2NzAuNjA5LDI0NS41NDdDNjc4LjA1OSwyNDUuNTQ3LDY4NC42MjYsMjQ1LjU0Nyw2ODcuOTA5LDI0NS41NDdMNjkxLjE5MiwyNDUuNTQ3Ij48L3BhdGg+PHBhdGggbWFya2VyLWVuZD0idXJsKCNnZU1lcm1haWRPdXRwdXQtMTcyMDk3NDkzOTA1OF9mbG93Y2hhcnQtcG9pbnRFbmQpIiBzdHlsZT0iZmlsbDpub25lOyIgY2xhc3M9ImVkZ2UtdGhpY2tuZXNzLW5vcm1hbCBlZGdlLXBhdHRlcm4tc29saWQgZmxvd2NoYXJ0LWxpbmsgTFMtRSBMRS1GIiBpZD0iTC1FLUYtMCIgZD0iTTgyOC44NDQsMjQ1LjU0N0w4MzMuMDEsMjQ1LjU0N0M4MzcuMTc3LDI0NS41NDcsODQ1LjUxLDI0NS41NDcsODUzLjA0NCwyNDUuNjEzQzg2MC41NzcsMjQ1LjY3OSw4NjcuMzExLDI0NS44MTEsODcwLjY3OCwyNDUuODc3TDg3NC4wNDUsMjQ1Ljk0MyI+PC9wYXRoPjxwYXRoIG1hcmtlci1lbmQ9InVybCgjZ2VNZXJtYWlkT3V0cHV0LTE3MjA5NzQ5MzkwNThfZmxvd2NoYXJ0LXBvaW50RW5kKSIgc3R5bGU9ImZpbGw6bm9uZTsiIGNsYXNzPSJlZGdlLXRoaWNrbmVzcy1ub3JtYWwgZWRnZS1wYXR0ZXJuLXNvbGlkIGZsb3djaGFydC1saW5rIExTLUYgTEUtRyIgaWQ9IkwtRi1HLTAiIGQ9Ik0xMDAxLjMxNywyMDMuMDk4TDEwMTIuNTU4LDE5MC43MDVDMTAyMy44LDE3OC4zMTEsMTA0Ni4yODMsMTUzLjUyNSwxMDYyLjc5MSwxNDEuMjAzQzEwNzkuMjk5LDEyOC44ODEsMTA4OS44MzIsMTI5LjAyNCwxMDk1LjA5OCwxMjkuMDk1TDExMDAuMzY1LDEyOS4xNjYiPjwvcGF0aD48cGF0aCBtYXJrZXItZW5kPSJ1cmwoI2dlTWVybWFpZE91dHB1dC0xNzIwOTc0OTM5MDU4X2Zsb3djaGFydC1wb2ludEVuZCkiIHN0eWxlPSJmaWxsOm5vbmU7IiBjbGFzcz0iZWRnZS10aGlja25lc3Mtbm9ybWFsIGVkZ2UtcGF0dGVybi1zb2xpZCBmbG93Y2hhcnQtbGluayBMUy1HIExFLUgiIGlkPSJMLUctSC0wIiBkPSJNMTI2MC42MDYsMTExLjk2MUwxMjY5LjQ2OCwxMDkuNjMyQzEyNzguMzMxLDEwNy4zMDMsMTI5Ni4wNTYsMTAyLjY0NiwxMzA4LjIwMiwxMDAuMzE3QzEzMjAuMzQ4LDk3Ljk4OCwxMzI2LjkxNSw5Ny45ODgsMTMzMC4xOTgsOTcuOTg4TDEzMzMuNDgxLDk3Ljk4OCI+PC9wYXRoPjxwYXRoIG1hcmtlci1lbmQ9InVybCgjZ2VNZXJtYWlkT3V0cHV0LTE3MjA5NzQ5MzkwNThfZmxvd2NoYXJ0LXBvaW50RW5kKSIgc3R5bGU9ImZpbGw6bm9uZTsiIGNsYXNzPSJlZGdlLXRoaWNrbmVzcy1ub3JtYWwgZWRnZS1wYXR0ZXJuLXNvbGlkIGZsb3djaGFydC1saW5rIExTLUggTEUtSSIgaWQ9IkwtSC1JLTAiIGQ9Ik0xNDUyLjgyOCw5Ny45ODhMMTQ1Ni45OTUsOTcuOTg4QzE0NjEuMTYxLDk3Ljk4OCwxNDY5LjQ5NSw5Ny45ODgsMTQ4MC4xNSw5OS44NjRDMTQ5MC44MDUsMTAxLjc0LDE1MDMuNzgxLDEwNS40OTMsMTUxMC4yNywxMDcuMzY5TDE1MTYuNzU4LDEwOS4yNDUiPjwvcGF0aD48cGF0aCBtYXJrZXItZW5kPSJ1cmwoI2dlTWVybWFpZE91dHB1dC0xNzIwOTc0OTM5MDU4X2Zsb3djaGFydC1wb2ludEVuZCkiIHN0eWxlPSJmaWxsOm5vbmU7IiBjbGFzcz0iZWRnZS10aGlja25lc3Mtbm9ybWFsIGVkZ2UtcGF0dGVybi1zb2xpZCBmbG93Y2hhcnQtbGluayBMUy1JIExFLUoiIGlkPSJMLUktSi0wIiBkPSJNMTY3Mi4yMDMsMTI5LjIzOEwxNjc4LjMwMSwxMjkuMTU1QzE2ODQuMzk4LDEyOS4wNzIsMTY5Ni41OTQsMTI4LjkwNSwxNzA3Ljk4OSwxMjguODIyQzE3MTkuMzg0LDEyOC43MzgsMTcyOS45OCwxMjguNzM4LDE3MzUuMjc3LDEyOC43MzhMMTc0MC41NzUsMTI4LjczOCI+PC9wYXRoPjxwYXRoIG1hcmtlci1lbmQ9InVybCgjZ2VNZXJtYWlkT3V0cHV0LTE3MjA5NzQ5MzkwNThfZmxvd2NoYXJ0LXBvaW50RW5kKSIgc3R5bGU9ImZpbGw6bm9uZTsiIGNsYXNzPSJlZGdlLXRoaWNrbmVzcy1ub3JtYWwgZWRnZS1wYXR0ZXJuLXNvbGlkIGZsb3djaGFydC1saW5rIExTLUogTEUtSyIgaWQ9IkwtSi1LLTAiIGQ9Ik0xOTIzLjQzOCwxMjguNzM4TDE5MjcuNjA0LDEyOC43MzhDMTkzMS43NzEsMTI4LjczOCwxOTQwLjEwNCwxMjguNzM4LDE5NDcuNTU0LDEyOC43MzhDMTk1NS4wMDQsMTI4LjczOCwxOTYxLjU3MSwxMjguNzM4LDE5NjQuODU0LDEyOC43MzhMMTk2OC4xMzgsMTI4LjczOCI+PC9wYXRoPjxwYXRoIG1hcmtlci1lbmQ9InVybCgjZ2VNZXJtYWlkT3V0cHV0LTE3MjA5NzQ5MzkwNThfZmxvd2NoYXJ0LXBvaW50RW5kKSIgc3R5bGU9ImZpbGw6bm9uZTsiIGNsYXNzPSJlZGdlLXRoaWNrbmVzcy1ub3JtYWwgZWRnZS1wYXR0ZXJuLXNvbGlkIGZsb3djaGFydC1saW5rIExTLUsgTEUtTCIgaWQ9IkwtSy1MLTAiIGQ9Ik0yMTQxLjg1MiwxMjguNzM4TDIxNDYuMDE4LDEyOC43MzhDMjE1MC4xODUsMTI4LjczOCwyMTU4LjUxOCwxMjguNzM4LDIxNjYuMDUyLDEyOC44MDRDMjE3My41ODUsMTI4Ljg3LDIxODAuMzE5LDEyOS4wMDIsMjE4My42ODYsMTI5LjA2OEwyMTg3LjA1MywxMjkuMTM0Ij48L3BhdGg+PHBhdGggbWFya2VyLWVuZD0idXJsKCNnZU1lcm1haWRPdXRwdXQtMTcyMDk3NDkzOTA1OF9mbG93Y2hhcnQtcG9pbnRFbmQpIiBzdHlsZT0iZmlsbDpub25lOyIgY2xhc3M9ImVkZ2UtdGhpY2tuZXNzLW5vcm1hbCBlZGdlLXBhdHRlcm4tc29saWQgZmxvd2NoYXJ0LWxpbmsgTFMtTCBMRS1NIiBpZD0iTC1MLU0tMCIgZD0iTTI0NDkuODI4LDEyOS4yMzhMMjQ1My45MTEsMTI5LjE1NUMyNDU3Ljk5NSwxMjkuMDcyLDI0NjYuMTYxLDEyOC45MDUsMjQ3My41MjgsMTI4LjgyMkMyNDgwLjg5NSwxMjguNzM4LDI0ODcuNDYxLDEyOC43MzgsMjQ5MC43NDUsMTI4LjczOEwyNDk0LjAyOCwxMjguNzM4Ij48L3BhdGg+PHBhdGggbWFya2VyLWVuZD0idXJsKCNnZU1lcm1haWRPdXRwdXQtMTcyMDk3NDkzOTA1OF9mbG93Y2hhcnQtcG9pbnRFbmQpIiBzdHlsZT0iZmlsbDpub25lOyIgY2xhc3M9ImVkZ2UtdGhpY2tuZXNzLW5vcm1hbCBlZGdlLXBhdHRlcm4tc29saWQgZmxvd2NoYXJ0LWxpbmsgTFMtTSBMRS1OIiBpZD0iTC1NLU4tMCIgZD0iTTI2NTguNzczLDEyOC43MzhMMjY2Mi45NCwxMjguNzM4QzI2NjcuMTA3LDEyOC43MzgsMjY3NS40NCwxMjguNzM4LDI2ODIuODksMTI4LjczOEMyNjkwLjM0LDEyOC43MzgsMjY5Ni45MDcsMTI4LjczOCwyNzAwLjE5LDEyOC43MzhMMjcwMy40NzMsMTI4LjczOCI+PC9wYXRoPjxwYXRoIG1hcmtlci1lbmQ9InVybCgjZ2VNZXJtYWlkT3V0cHV0LTE3MjA5NzQ5MzkwNThfZmxvd2NoYXJ0LXBvaW50RW5kKSIgc3R5bGU9ImZpbGw6bm9uZTsiIGNsYXNzPSJlZGdlLXRoaWNrbmVzcy1ub3JtYWwgZWRnZS1wYXR0ZXJuLXNvbGlkIGZsb3djaGFydC1saW5rIExTLUkgTEUtRyIgaWQ9IkwtSS1HLTAiIGQ9Ik0xNTQwLjQ5OCwxNjYuNDA4TDE1MzAuMDUzLDE3NC40NzNDMTUxOS42MDgsMTgyLjUzOCwxNDk4LjcxOCwxOTguNjY3LDE0NzQuNjAzLDIwNi43MzJDMTQ1MC40ODcsMjE0Ljc5NywxNDIzLjE0NiwyMTQuNzk3LDEzOTUuODA1LDIxNC43OTdDMTM2OC40NjQsMjE0Ljc5NywxMzQxLjEyMiwyMTQuNzk3LDEzMTYuMjcxLDIwNi45NjZDMTI5MS40MTksMTk5LjEzNCwxMjY5LjA1NiwxODMuNDcyLDEyNTcuODc1LDE3NS42NEwxMjQ2LjY5NCwxNjcuODA5Ij48L3BhdGg+PHBhdGggbWFya2VyLWVuZD0idXJsKCNnZU1lcm1haWRPdXRwdXQtMTcyMDk3NDkzOTA1OF9mbG93Y2hhcnQtcG9pbnRFbmQpIiBzdHlsZT0iZmlsbDpub25lOyIgY2xhc3M9ImVkZ2UtdGhpY2tuZXNzLW5vcm1hbCBlZGdlLXBhdHRlcm4tc29saWQgZmxvd2NoYXJ0LWxpbmsgTFMtRiBMRS1PIiBpZD0iTC1GLU8tMCIgZD0iTTEwMDEuMzE3LDI4OC45OTZMMTAxMi41NTgsMzAxLjIyMkMxMDIzLjgsMzEzLjQ0OSwxMDQ2LjI4MywzMzcuOTAyLDEwNjAuODkxLDM1MC4xOTVDMTA3NS40OTksMzYyLjQ4OCwxMDgyLjIzMywzNjIuNjIsMTA4NS42LDM2Mi42ODZMMTA4OC45NjcsMzYyLjc1MiI+PC9wYXRoPjxwYXRoIG1hcmtlci1lbmQ9InVybCgjZ2VNZXJtYWlkT3V0cHV0LTE3MjA5NzQ5MzkwNThfZmxvd2NoYXJ0LXBvaW50RW5kKSIgc3R5bGU9ImZpbGw6bm9uZTsiIGNsYXNzPSJlZGdlLXRoaWNrbmVzcy1ub3JtYWwgZWRnZS1wYXR0ZXJuLXNvbGlkIGZsb3djaGFydC1saW5rIExTLU8gTEUtUCIgaWQ9IkwtTy1QLTAiIGQ9Ik0xMjg5LjI4MSwzNjIuODU1TDEyOTMuMzY1LDM2Mi43NzJDMTI5Ny40NDgsMzYyLjY4OSwxMzA1LjYxNSwzNjIuNTIyLDEzMTIuOTg4LDM2Mi40MzlDMTMyMC4zNjEsMzYyLjM1NSwxMzI2Ljk0MSwzNjIuMzU1LDEzMzAuMjMsMzYyLjM1NUwxMzMzLjUyLDM2Mi4zNTUiPjwvcGF0aD48cGF0aCBtYXJrZXItZW5kPSJ1cmwoI2dlTWVybWFpZE91dHB1dC0xNzIwOTc0OTM5MDU4X2Zsb3djaGFydC1wb2ludEVuZCkiIHN0eWxlPSJmaWxsOm5vbmU7IiBjbGFzcz0iZWRnZS10aGlja25lc3Mtbm9ybWFsIGVkZ2UtcGF0dGVybi1zb2xpZCBmbG93Y2hhcnQtbGluayBMUy1QIExFLVEiIGlkPSJMLVAtUS0wIiBkPSJNMTQ1Mi43ODksMzYyLjM1NUwxNDU2Ljk2MiwzNjIuMzU1QzE0NjEuMTM1LDM2Mi4zNTUsMTQ2OS40ODIsMzYyLjM1NSwxNDgyLjE1OCwzNjIuMzU1QzE0OTQuODM1LDM2Mi4zNTUsMTUxMS44NDIsMzYyLjM1NSwxNTIwLjM0NSwzNjIuMzU1TDE1MjguODQ4LDM2Mi4zNTUiPjwvcGF0aD48cGF0aCBtYXJrZXItZW5kPSJ1cmwoI2dlTWVybWFpZE91dHB1dC0xNzIwOTc0OTM5MDU4X2Zsb3djaGFydC1wb2ludEVuZCkiIHN0eWxlPSJmaWxsOm5vbmU7IiBjbGFzcz0iZWRnZS10aGlja25lc3Mtbm9ybWFsIGVkZ2UtcGF0dGVybi1zb2xpZCBmbG93Y2hhcnQtbGluayBMUy1RIExFLVIiIGlkPSJMLVEtUi0wIiBkPSJNMTY0MC4zODMsMzYyLjM1NUwxNjUxLjc4NCwzNjIuMzU1QzE2NjMuMTg1LDM2Mi4zNTUsMTY4NS45ODcsMzYyLjM1NSwxNzA0LjA5MywzNjIuMzU1QzE3MjIuMTk4LDM2Mi4zNTUsMTczNS42MDcsMzYyLjM1NSwxNzQyLjMxMiwzNjIuMzU1TDE3NDkuMDE2LDM2Mi4zNTUiPjwvcGF0aD48L2c+PGcgY2xhc3M9ImVkZ2VMYWJlbHMiPjxnIGNsYXNzPSJlZGdlTGFiZWwiPjxnIHRyYW5zZm9ybT0idHJhbnNsYXRlKDAsIDApIiBjbGFzcz0ibGFiZWwiPjxyZWN0IGhlaWdodD0iMCIgd2lkdGg9IjAiIHJ5PSIwIiByeD0iMCI+PC9yZWN0Pjx0ZXh0IHN0eWxlPSIiPjx0c3BhbiBjbGFzcz0icm93IiB4PSIwIiBkeT0iMWVtIiB4bWw6c3BhY2U9InByZXNlcnZlIj48L3RzcGFuPjwvdGV4dD48L2c+PC9nPjxnIGNsYXNzPSJlZGdlTGFiZWwiPjxnIHRyYW5zZm9ybT0idHJhbnNsYXRlKDAsIDApIiBjbGFzcz0ibGFiZWwiPjxyZWN0IGhlaWdodD0iMCIgd2lkdGg9IjAiIHJ5PSIwIiByeD0iMCI+PC9yZWN0Pjx0ZXh0IHN0eWxlPSIiPjx0c3BhbiBjbGFzcz0icm93IiB4PSIwIiBkeT0iMWVtIiB4bWw6c3BhY2U9InByZXNlcnZlIj48L3RzcGFuPjwvdGV4dD48L2c+PC9nPjxnIGNsYXNzPSJlZGdlTGFiZWwiPjxnIHRyYW5zZm9ybT0idHJhbnNsYXRlKDAsIDApIiBjbGFzcz0ibGFiZWwiPjxyZWN0IGhlaWdodD0iMCIgd2lkdGg9IjAiIHJ5PSIwIiByeD0iMCI+PC9yZWN0Pjx0ZXh0IHN0eWxlPSIiPjx0c3BhbiBjbGFzcz0icm93IiB4PSIwIiBkeT0iMWVtIiB4bWw6c3BhY2U9InByZXNlcnZlIj48L3RzcGFuPjwvdGV4dD48L2c+PC9nPjxnIGNsYXNzPSJlZGdlTGFiZWwiPjxnIHRyYW5zZm9ybT0idHJhbnNsYXRlKDAsIDApIiBjbGFzcz0ibGFiZWwiPjxyZWN0IGhlaWdodD0iMCIgd2lkdGg9IjAiIHJ5PSIwIiByeD0iMCI+PC9yZWN0Pjx0ZXh0IHN0eWxlPSIiPjx0c3BhbiBjbGFzcz0icm93IiB4PSIwIiBkeT0iMWVtIiB4bWw6c3BhY2U9InByZXNlcnZlIj48L3RzcGFuPjwvdGV4dD48L2c+PC9nPjxnIGNsYXNzPSJlZGdlTGFiZWwiPjxnIHRyYW5zZm9ybT0idHJhbnNsYXRlKDAsIDApIiBjbGFzcz0ibGFiZWwiPjxyZWN0IGhlaWdodD0iMCIgd2lkdGg9IjAiIHJ5PSIwIiByeD0iMCI+PC9yZWN0Pjx0ZXh0IHN0eWxlPSIiPjx0c3BhbiBjbGFzcz0icm93IiB4PSIwIiBkeT0iMWVtIiB4bWw6c3BhY2U9InByZXNlcnZlIj48L3RzcGFuPjwvdGV4dD48L2c+PC9nPjxnIGNsYXNzPSJlZGdlTGFiZWwiPjxnIHRyYW5zZm9ybT0idHJhbnNsYXRlKDAsIDApIiBjbGFzcz0ibGFiZWwiPjxyZWN0IGhlaWdodD0iMCIgd2lkdGg9IjAiIHJ5PSIwIiByeD0iMCI+PC9yZWN0Pjx0ZXh0IHN0eWxlPSIiPjx0c3BhbiBjbGFzcz0icm93IiB4PSIwIiBkeT0iMWVtIiB4bWw6c3BhY2U9InByZXNlcnZlIj48L3RzcGFuPjwvdGV4dD48L2c+PC9nPjxnIGNsYXNzPSJlZGdlTGFiZWwiPjxnIHRyYW5zZm9ybT0idHJhbnNsYXRlKDAsIDApIiBjbGFzcz0ibGFiZWwiPjxyZWN0IGhlaWdodD0iMCIgd2lkdGg9IjAiIHJ5PSIwIiByeD0iMCI+PC9yZWN0Pjx0ZXh0IHN0eWxlPSIiPjx0c3BhbiBjbGFzcz0icm93IiB4PSIwIiBkeT0iMWVtIiB4bWw6c3BhY2U9InByZXNlcnZlIj48L3RzcGFuPjwvdGV4dD48L2c+PC9nPjxnIGNsYXNzPSJlZGdlTGFiZWwiPjxnIHRyYW5zZm9ybT0idHJhbnNsYXRlKDAsIDApIiBjbGFzcz0ibGFiZWwiPjxyZWN0IGhlaWdodD0iMCIgd2lkdGg9IjAiIHJ5PSIwIiByeD0iMCI+PC9yZWN0Pjx0ZXh0IHN0eWxlPSIiPjx0c3BhbiBjbGFzcz0icm93IiB4PSIwIiBkeT0iMWVtIiB4bWw6c3BhY2U9InByZXNlcnZlIj48L3RzcGFuPjwvdGV4dD48L2c+PC9nPjxnIHRyYW5zZm9ybT0idHJhbnNsYXRlKDE3MDguNzg5MDYyNSwgMTI4LjczODI4MTI1KSIgY2xhc3M9ImVkZ2VMYWJlbCI+PGcgdHJhbnNmb3JtPSJ0cmFuc2xhdGUoLTEyLjA4NTkzNzUsIC05LjUpIiBjbGFzcz0ibGFiZWwiPjxyZWN0IGhlaWdodD0iMTguMTkxMjg3OTk0Mzg0NzY2IiB3aWR0aD0iMjUuMjYwNTk3MjI5MDAzOTA2IiByeT0iMCIgcng9IjAiPjwvcmVjdD48dGV4dCBzdHlsZT0iIj48dHNwYW4gY2xhc3M9InJvdyIgeD0iMCIgZHk9IjFlbSIgeG1sOnNwYWNlPSJwcmVzZXJ2ZSI+WWVzPC90c3Bhbj48L3RleHQ+PC9nPjwvZz48ZyBjbGFzcz0iZWRnZUxhYmVsIj48ZyB0cmFuc2Zvcm09InRyYW5zbGF0ZSgwLCAwKSIgY2xhc3M9ImxhYmVsIj48cmVjdCBoZWlnaHQ9IjAiIHdpZHRoPSIwIiByeT0iMCIgcng9IjAiPjwvcmVjdD48dGV4dCBzdHlsZT0iIj48dHNwYW4gY2xhc3M9InJvdyIgeD0iMCIgZHk9IjFlbSIgeG1sOnNwYWNlPSJwcmVzZXJ2ZSI+PC90c3Bhbj48L3RleHQ+PC9nPjwvZz48ZyBjbGFzcz0iZWRnZUxhYmVsIj48ZyB0cmFuc2Zvcm09InRyYW5zbGF0ZSgwLCAwKSIgY2xhc3M9ImxhYmVsIj48cmVjdCBoZWlnaHQ9IjAiIHdpZHRoPSIwIiByeT0iMCIgcng9IjAiPjwvcmVjdD48dGV4dCBzdHlsZT0iIj48dHNwYW4gY2xhc3M9InJvdyIgeD0iMCIgZHk9IjFlbSIgeG1sOnNwYWNlPSJwcmVzZXJ2ZSI+PC90c3Bhbj48L3RleHQ+PC9nPjwvZz48ZyBjbGFzcz0iZWRnZUxhYmVsIj48ZyB0cmFuc2Zvcm09InRyYW5zbGF0ZSgwLCAwKSIgY2xhc3M9ImxhYmVsIj48cmVjdCBoZWlnaHQ9IjAiIHdpZHRoPSIwIiByeT0iMCIgcng9IjAiPjwvcmVjdD48dGV4dCBzdHlsZT0iIj48dHNwYW4gY2xhc3M9InJvdyIgeD0iMCIgZHk9IjFlbSIgeG1sOnNwYWNlPSJwcmVzZXJ2ZSI+PC90c3Bhbj48L3RleHQ+PC9nPjwvZz48ZyBjbGFzcz0iZWRnZUxhYmVsIj48ZyB0cmFuc2Zvcm09InRyYW5zbGF0ZSgwLCAwKSIgY2xhc3M9ImxhYmVsIj48cmVjdCBoZWlnaHQ9IjAiIHdpZHRoPSIwIiByeT0iMCIgcng9IjAiPjwvcmVjdD48dGV4dCBzdHlsZT0iIj48dHNwYW4gY2xhc3M9InJvdyIgeD0iMCIgZHk9IjFlbSIgeG1sOnNwYWNlPSJwcmVzZXJ2ZSI+PC90c3Bhbj48L3RleHQ+PC9nPjwvZz48ZyB0cmFuc2Zvcm09InRyYW5zbGF0ZSgxMzk1LjgwNDY4NzUsIDIxNC43OTY4NzUpIiBjbGFzcz0iZWRnZUxhYmVsIj48ZyB0cmFuc2Zvcm09InRyYW5zbGF0ZSgtOS42MDU0Njg3NSwgLTkuNSkiIGNsYXNzPSJsYWJlbCI+PHJlY3QgaGVpZ2h0PSIxOC4xOTEyODc5OTQzODQ3NjYiIHdpZHRoPSIxOS4zMDIyMjEyOTgyMTc3NzMiIHJ5PSIwIiByeD0iMCI+PC9yZWN0Pjx0ZXh0IHN0eWxlPSIiPjx0c3BhbiBjbGFzcz0icm93IiB4PSIwIiBkeT0iMWVtIiB4bWw6c3BhY2U9InByZXNlcnZlIj5ObzwvdHNwYW4+PC90ZXh0PjwvZz48L2c+PGcgY2xhc3M9ImVkZ2VMYWJlbCI+PGcgdHJhbnNmb3JtPSJ0cmFuc2xhdGUoMCwgMCkiIGNsYXNzPSJsYWJlbCI+PHJlY3QgaGVpZ2h0PSIwIiB3aWR0aD0iMCIgcnk9IjAiIHJ4PSIwIj48L3JlY3Q+PHRleHQgc3R5bGU9IiI+PHRzcGFuIGNsYXNzPSJyb3ciIHg9IjAiIGR5PSIxZW0iIHhtbDpzcGFjZT0icHJlc2VydmUiPjwvdHNwYW4+PC90ZXh0PjwvZz48L2c+PGcgY2xhc3M9ImVkZ2VMYWJlbCI+PGcgdHJhbnNmb3JtPSJ0cmFuc2xhdGUoMCwgMCkiIGNsYXNzPSJsYWJlbCI+PHJlY3QgaGVpZ2h0PSIwIiB3aWR0aD0iMCIgcnk9IjAiIHJ4PSIwIj48L3JlY3Q+PHRleHQgc3R5bGU9IiI+PHRzcGFuIGNsYXNzPSJyb3ciIHg9IjAiIGR5PSIxZW0iIHhtbDpzcGFjZT0icHJlc2VydmUiPjwvdHNwYW4+PC90ZXh0PjwvZz48L2c+PGcgY2xhc3M9ImVkZ2VMYWJlbCI+PGcgdHJhbnNmb3JtPSJ0cmFuc2xhdGUoMCwgMCkiIGNsYXNzPSJsYWJlbCI+PHJlY3QgaGVpZ2h0PSIwIiB3aWR0aD0iMCIgcnk9IjAiIHJ4PSIwIj48L3JlY3Q+PHRleHQgc3R5bGU9IiI+PHRzcGFuIGNsYXNzPSJyb3ciIHg9IjAiIGR5PSIxZW0iIHhtbDpzcGFjZT0icHJlc2VydmUiPjwvdHNwYW4+PC90ZXh0PjwvZz48L2c+PGcgY2xhc3M9ImVkZ2VMYWJlbCI+PGcgdHJhbnNmb3JtPSJ0cmFuc2xhdGUoMCwgMCkiIGNsYXNzPSJsYWJlbCI+PHJlY3QgaGVpZ2h0PSIwIiB3aWR0aD0iMCIgcnk9IjAiIHJ4PSIwIj48L3JlY3Q+PHRleHQgc3R5bGU9IiI+PHRzcGFuIGNsYXNzPSJyb3ciIHg9IjAiIGR5PSIxZW0iIHhtbDpzcGFjZT0icHJlc2VydmUiPjwvdHNwYW4+PC90ZXh0PjwvZz48L2c+PC9nPjxnIGNsYXNzPSJub2RlcyI+PGcgdHJhbnNmb3JtPSJ0cmFuc2xhdGUoNjYuMTY0MDYyNSwgMjQ1LjU0Njg3NSkiIGRhdGEtaWQ9IkEiIGRhdGEtbm9kZT0idHJ1ZSIgaWQ9ImZsb3djaGFydC1BLTQ1IiBjbGFzcz0ibm9kZSBkZWZhdWx0IGRlZmF1bHQgZmxvd2NoYXJ0LWxhYmVsIj48cmVjdCBoZWlnaHQ9IjM0IiB3aWR0aD0iMTMyLjMyODEyNSIgeT0iLTE3IiB4PSItNjYuMTY0MDYyNSIgcnk9IjUiIHJ4PSI1IiBzdHlsZT0iIiBjbGFzcz0iYmFzaWMgbGFiZWwtY29udGFpbmVyIj48L3JlY3Q+PGcgdHJhbnNmb3JtPSJ0cmFuc2xhdGUoMCwgLTkuNSkiIHN0eWxlPSIiIGNsYXNzPSJsYWJlbCI+PHJlY3Q+PC9yZWN0Pjx0ZXh0IHN0eWxlPSIiPjx0c3BhbiBjbGFzcz0icm93IiB4PSIwIiBkeT0iMWVtIiB4bWw6c3BhY2U9InByZXNlcnZlIj5BcHAgaXMgTGF1bmNoZWQ8L3RzcGFuPjwvdGV4dD48L2c+PC9nPjxnIHRyYW5zZm9ybT0idHJhbnNsYXRlKDIzNy45NjQ4NDM3NSwgMjQ1LjU0Njg3NSkiIGRhdGEtaWQ9IkIiIGRhdGEtbm9kZT0idHJ1ZSIgaWQ9ImZsb3djaGFydC1CLTQ2IiBjbGFzcz0ibm9kZSBkZWZhdWx0IGRlZmF1bHQgZmxvd2NoYXJ0LWxhYmVsIj48cmVjdCBoZWlnaHQ9IjM0IiB3aWR0aD0iMTExLjI3MzQzNzUiIHk9Ii0xNyIgeD0iLTU1LjYzNjcxODc1IiByeT0iNSIgcng9IjUiIHN0eWxlPSIiIGNsYXNzPSJiYXNpYyBsYWJlbC1jb250YWluZXIiPjwvcmVjdD48ZyB0cmFuc2Zvcm09InRyYW5zbGF0ZSgwLCAtOS41KSIgc3R5bGU9IiIgY2xhc3M9ImxhYmVsIj48cmVjdD48L3JlY3Q+PHRleHQgc3R5bGU9IiI+PHRzcGFuIGNsYXNzPSJyb3ciIHg9IjAiIGR5PSIxZW0iIHhtbDpzcGFjZT0icHJlc2VydmUiPkxvYWQgU2V0dGluZ3M8L3RzcGFuPjwvdGV4dD48L2c+PC9nPjxnIHRyYW5zZm9ybT0idHJhbnNsYXRlKDM5OC4yOTY4NzUsIDI0NS41NDY4NzUpIiBkYXRhLWlkPSJDIiBkYXRhLW5vZGU9InRydWUiIGlkPSJmbG93Y2hhcnQtQy00NyIgY2xhc3M9Im5vZGUgZGVmYXVsdCBkZWZhdWx0IGZsb3djaGFydC1sYWJlbCI+PHJlY3QgaGVpZ2h0PSIzNCIgd2lkdGg9IjEwOS4zOTA2MjUiIHk9Ii0xNyIgeD0iLTU0LjY5NTMxMjUiIHJ5PSI1IiByeD0iNSIgc3R5bGU9IiIgY2xhc3M9ImJhc2ljIGxhYmVsLWNvbnRhaW5lciI+PC9yZWN0PjxnIHRyYW5zZm9ybT0idHJhbnNsYXRlKDAsIC05LjUpIiBzdHlsZT0iIiBjbGFzcz0ibGFiZWwiPjxyZWN0PjwvcmVjdD48dGV4dCBzdHlsZT0iIj48dHNwYW4gY2xhc3M9InJvdyIgeD0iMCIgZHk9IjFlbSIgeG1sOnNwYWNlPSJwcmVzZXJ2ZSI+SW5kZXggUGx1Z2luczwvdHNwYW4+PC90ZXh0PjwvZz48L2c+PGcgdHJhbnNmb3JtPSJ0cmFuc2xhdGUoNTc0Ljc0MjE4NzUsIDI0NS41NDY4NzUpIiBkYXRhLWlkPSJEIiBkYXRhLW5vZGU9InRydWUiIGlkPSJmbG93Y2hhcnQtRC00OCIgY2xhc3M9Im5vZGUgZGVmYXVsdCBkZWZhdWx0IGZsb3djaGFydC1sYWJlbCI+PHJlY3QgaGVpZ2h0PSIzNCIgd2lkdGg9IjE0My41IiB5PSItMTciIHg9Ii03MS43NSIgcnk9IjUiIHJ4PSI1IiBzdHlsZT0iIiBjbGFzcz0iYmFzaWMgbGFiZWwtY29udGFpbmVyIj48L3JlY3Q+PGcgdHJhbnNmb3JtPSJ0cmFuc2xhdGUoMCwgLTkuNSkiIHN0eWxlPSIiIGNsYXNzPSJsYWJlbCI+PHJlY3Q+PC9yZWN0Pjx0ZXh0IHN0eWxlPSIiPjx0c3BhbiBjbGFzcz0icm93IiB4PSIwIiBkeT0iMWVtIiB4bWw6c3BhY2U9InByZXNlcnZlIj5SdW4gb25BcHBTdGFydHVwPC90c3Bhbj48L3RleHQ+PC9nPjwvZz48ZyB0cmFuc2Zvcm09InRyYW5zbGF0ZSg3NjIuNjY3OTY4NzUsIDI0NS41NDY4NzUpIiBkYXRhLWlkPSJFIiBkYXRhLW5vZGU9InRydWUiIGlkPSJmbG93Y2hhcnQtRS00OSIgY2xhc3M9Im5vZGUgZGVmYXVsdCBkZWZhdWx0IGZsb3djaGFydC1sYWJlbCI+PHJlY3QgaGVpZ2h0PSIzNCIgd2lkdGg9IjEzMi4zNTE1NjI1IiB5PSItMTciIHg9Ii02Ni4xNzU3ODEyNSIgcnk9IjUiIHJ4PSI1IiBzdHlsZT0iIiBjbGFzcz0iYmFzaWMgbGFiZWwtY29udGFpbmVyIj48L3JlY3Q+PGcgdHJhbnNmb3JtPSJ0cmFuc2xhdGUoMCwgLTkuNSkiIHN0eWxlPSIiIGNsYXNzPSJsYWJlbCI+PHJlY3Q+PC9yZWN0Pjx0ZXh0IHN0eWxlPSIiPjx0c3BhbiBjbGFzcz0icm93IiB4PSIwIiBkeT0iMWVtIiB4bWw6c3BhY2U9InByZXNlcnZlIj5DcmVhdGUgVHJheSBJY29uPC90c3Bhbj48L3RleHQ+PC9nPjwvZz48ZyB0cmFuc2Zvcm09InRyYW5zbGF0ZSg5NjEuMzA0Njg3NSwgMjQ1LjU0Njg3NSkiIGRhdGEtaWQ9IkYiIGRhdGEtbm9kZT0idHJ1ZSIgaWQ9ImZsb3djaGFydC1GLTUwIiBjbGFzcz0ibm9kZSBkZWZhdWx0IGRlZmF1bHQgZmxvd2NoYXJ0LWxhYmVsIj48cG9seWdvbiBzdHlsZT0iZmlsbDojMDBCRkZGOyBzdHJva2U6IzAwQkZGRjsiIHRyYW5zZm9ybT0idHJhbnNsYXRlKC04Mi40NjA5Mzc1LDgyLjQ2MDkzNzUpIiBjbGFzcz0ibGFiZWwtY29udGFpbmVyIiBwb2ludHM9IjgyLjQ2MDkzNzUsMCAxNjQuOTIxODc1LC04Mi40NjA5Mzc1IDgyLjQ2MDkzNzUsLTE2NC45MjE4NzUgMCwtODIuNDYwOTM3NSI+PC9wb2x5Z29uPjxnIHRyYW5zZm9ybT0idHJhbnNsYXRlKDAsIC05LjUpIiBzdHlsZT0iY29sb3I6I0ZGRkZGRjsiIGNsYXNzPSJsYWJlbCI+PHJlY3Q+PC9yZWN0Pjx0ZXh0IHN0eWxlPSJmaWxsOiNGRkZGRkY7Ij48dHNwYW4gY2xhc3M9InJvdyIgeD0iMCIgZHk9IjFlbSIgeG1sOnNwYWNlPSJwcmVzZXJ2ZSI+VXNlciBJbnRlcmFjdGlvbjwvdHNwYW4+PC90ZXh0PjwvZz48L2c+PGcgdHJhbnNmb3JtPSJ0cmFuc2xhdGUoMTE5MS4yNzM0Mzc1LCAxMjguNzM4MjgxMjUpIiBkYXRhLWlkPSJHIiBkYXRhLW5vZGU9InRydWUiIGlkPSJmbG93Y2hhcnQtRy01MSIgY2xhc3M9Im5vZGUgZGVmYXVsdCBkZWZhdWx0IGZsb3djaGFydC1sYWJlbCI+PHBvbHlnb24gc3R5bGU9IiIgdHJhbnNmb3JtPSJ0cmFuc2xhdGUoLTg2LjEwOTM3NSw4Ni4xMDkzNzUpIiBjbGFzcz0ibGFiZWwtY29udGFpbmVyIiBwb2ludHM9Ijg2LjEwOTM3NSwwIDE3Mi4yMTg3NSwtODYuMTA5Mzc1IDg2LjEwOTM3NSwtMTcyLjIxODc1IDAsLTg2LjEwOTM3NSI+PC9wb2x5Z29uPjxnIHRyYW5zZm9ybT0idHJhbnNsYXRlKDAsIC05LjUpIiBzdHlsZT0iIiBjbGFzcz0ibGFiZWwiPjxyZWN0PjwvcmVjdD48dGV4dCBzdHlsZT0iIj48dHNwYW4gY2xhc3M9InJvdyIgeD0iMCIgZHk9IjFlbSIgeG1sOnNwYWNlPSJwcmVzZXJ2ZSI+VXNlciBoaXRzIGFueSBrZXk8L3RzcGFuPjwvdGV4dD48L2c+PC9nPjxnIHRyYW5zZm9ybT0idHJhbnNsYXRlKDEzOTUuODA0Njg3NSwgOTcuOTg4MjgxMjUpIiBkYXRhLWlkPSJIIiBkYXRhLW5vZGU9InRydWUiIGlkPSJmbG93Y2hhcnQtSC01MiIgY2xhc3M9Im5vZGUgZGVmYXVsdCBkZWZhdWx0IGZsb3djaGFydC1sYWJlbCI+PHJlY3QgaGVpZ2h0PSIzNCIgd2lkdGg9IjExNC4wNDY4NzUiIHk9Ii0xNyIgeD0iLTU3LjAyMzQzNzUiIHJ5PSI1IiByeD0iNSIgc3R5bGU9IiIgY2xhc3M9ImJhc2ljIGxhYmVsLWNvbnRhaW5lciI+PC9yZWN0PjxnIHRyYW5zZm9ybT0idHJhbnNsYXRlKDAsIC05LjUpIiBzdHlsZT0iIiBjbGFzcz0ibGFiZWwiPjxyZWN0PjwvcmVjdD48dGV4dCBzdHlsZT0iIj48dHNwYW4gY2xhc3M9InJvdyIgeD0iMCIgZHk9IjFlbSIgeG1sOnNwYWNlPSJwcmVzZXJ2ZSI+Q2hlY2sgSG90a2V5PC90c3Bhbj48L3RleHQ+PC9nPjwvZz48ZyB0cmFuc2Zvcm09InRyYW5zbGF0ZSgxNTg3LjI2NTYyNSwgMTI4LjczODI4MTI1KSIgZGF0YS1pZD0iSSIgZGF0YS1ub2RlPSJ0cnVlIiBpZD0iZmxvd2NoYXJ0LUktNTMiIGNsYXNzPSJub2RlIGRlZmF1bHQgZGVmYXVsdCBmbG93Y2hhcnQtbGFiZWwiPjxwb2x5Z29uIHN0eWxlPSJmaWxsOiNGRjYzNDc7IHN0cm9rZTojRkY2MzQ3OyIgdHJhbnNmb3JtPSJ0cmFuc2xhdGUoLTg0LjQzNzUsODQuNDM3NSkiIGNsYXNzPSJsYWJlbC1jb250YWluZXIiIHBvaW50cz0iODQuNDM3NSwwIDE2OC44NzUsLTg0LjQzNzUgODQuNDM3NSwtMTY4Ljg3NSAwLC04NC40Mzc1Ij48L3BvbHlnb24+PGcgdHJhbnNmb3JtPSJ0cmFuc2xhdGUoMCwgLTkuNSkiIHN0eWxlPSJjb2xvcjojRkZGRkZGOyIgY2xhc3M9ImxhYmVsIj48cmVjdD48L3JlY3Q+PHRleHQgc3R5bGU9ImZpbGw6I0ZGRkZGRjsiPjx0c3BhbiBjbGFzcz0icm93IiB4PSIwIiBkeT0iMWVtIiB4bWw6c3BhY2U9InByZXNlcnZlIj5NYXRjaGVzIEhvdGtleT88L3RzcGFuPjwvdGV4dD48L2c+PC9nPjxnIHRyYW5zZm9ybT0idHJhbnNsYXRlKDE4MzQuNjU2MjUsIDEyOC43MzgyODEyNSkiIGRhdGEtaWQ9IkoiIGRhdGEtbm9kZT0idHJ1ZSIgaWQ9ImZsb3djaGFydC1KLTU0IiBjbGFzcz0ibm9kZSBkZWZhdWx0IGRlZmF1bHQgZmxvd2NoYXJ0LWxhYmVsIj48cmVjdCBoZWlnaHQ9IjM0IiB3aWR0aD0iMTc3LjU2MjUiIHk9Ii0xNyIgeD0iLTg4Ljc4MTI1IiByeT0iNSIgcng9IjUiIHN0eWxlPSIiIGNsYXNzPSJiYXNpYyBsYWJlbC1jb250YWluZXIiPjwvcmVjdD48ZyB0cmFuc2Zvcm09InRyYW5zbGF0ZSgwLCAtOS41KSIgc3R5bGU9IiIgY2xhc3M9ImxhYmVsIj48cmVjdD48L3JlY3Q+PHRleHQgc3R5bGU9IiI+PHRzcGFuIGNsYXNzPSJyb3ciIHg9IjAiIGR5PSIxZW0iIHhtbDpzcGFjZT0icHJlc2VydmUiPkNyZWF0ZSBTZWFyY2ggV2luZG93PC90c3Bhbj48L3RleHQ+PC9nPjwvZz48ZyB0cmFuc2Zvcm09InRyYW5zbGF0ZSgyMDU3LjY0NDUzMTI1LCAxMjguNzM4MjgxMjUpIiBkYXRhLWlkPSJLIiBkYXRhLW5vZGU9InRydWUiIGlkPSJmbG93Y2hhcnQtSy01NSIgY2xhc3M9Im5vZGUgZGVmYXVsdCBkZWZhdWx0IGZsb3djaGFydC1sYWJlbCI+PHJlY3QgaGVpZ2h0PSIzNCIgd2lkdGg9IjE2OC40MTQwNjI1IiB5PSItMTciIHg9Ii04NC4yMDcwMzEyNSIgcnk9IjUiIHJ4PSI1IiBzdHlsZT0iIiBjbGFzcz0iYmFzaWMgbGFiZWwtY29udGFpbmVyIj48L3JlY3Q+PGcgdHJhbnNmb3JtPSJ0cmFuc2xhdGUoMCwgLTkuNSkiIHN0eWxlPSIiIGNsYXNzPSJsYWJlbCI+PHJlY3Q+PC9yZWN0Pjx0ZXh0IHN0eWxlPSIiPjx0c3BhbiBjbGFzcz0icm93IiB4PSIwIiBkeT0iMWVtIiB4bWw6c3BhY2U9InByZXNlcnZlIj5SdW4gb25TZWFyY2hXaW5kb3c8L3RzcGFuPjwvdGV4dD48L2c+PC9nPjxnIHRyYW5zZm9ybT0idHJhbnNsYXRlKDIzMjAuNTg5ODQzNzUsIDEyOC43MzgyODEyNSkiIGRhdGEtaWQ9IkwiIGRhdGEtbm9kZT0idHJ1ZSIgaWQ9ImZsb3djaGFydC1MLTU2IiBjbGFzcz0ibm9kZSBkZWZhdWx0IGRlZmF1bHQgZmxvd2NoYXJ0LWxhYmVsIj48cG9seWdvbiBzdHlsZT0iZmlsbDojMzJDRDMyOyBzdHJva2U6IzMyQ0QzMjsiIHRyYW5zZm9ybT0idHJhbnNsYXRlKC0xMjguNzM4MjgxMjUsMTI4LjczODI4MTI1KSIgY2xhc3M9ImxhYmVsLWNvbnRhaW5lciIgcG9pbnRzPSIxMjguNzM4MjgxMjUsMCAyNTcuNDc2NTYyNSwtMTI4LjczODI4MTI1IDEyOC43MzgyODEyNSwtMjU3LjQ3NjU2MjUgMCwtMTI4LjczODI4MTI1Ij48L3BvbHlnb24+PGcgdHJhbnNmb3JtPSJ0cmFuc2xhdGUoMCwgLTkuNSkiIHN0eWxlPSJjb2xvcjojRkZGRkZGOyIgY2xhc3M9ImxhYmVsIj48cmVjdD48L3JlY3Q+PHRleHQgc3R5bGU9ImZpbGw6I0ZGRkZGRjsiPjx0c3BhbiBjbGFzcz0icm93IiB4PSIwIiBkeT0iMWVtIiB4bWw6c3BhY2U9InByZXNlcnZlIj5Vc2VyIFR5cGVzIGluIFNlYXJjaCBXaW5kb3c8L3RzcGFuPjwvdGV4dD48L2c+PC9nPjxnIHRyYW5zZm9ybT0idHJhbnNsYXRlKDI1NzkuMDUwNzgxMjUsIDEyOC43MzgyODEyNSkiIGRhdGEtaWQ9Ik0iIGRhdGEtbm9kZT0idHJ1ZSIgaWQ9ImZsb3djaGFydC1NLTU3IiBjbGFzcz0ibm9kZSBkZWZhdWx0IGRlZmF1bHQgZmxvd2NoYXJ0LWxhYmVsIj48cmVjdCBoZWlnaHQ9IjM0IiB3aWR0aD0iMTU5LjQ0NTMxMjUiIHk9Ii0xNyIgeD0iLTc5LjcyMjY1NjI1IiByeT0iNSIgcng9IjUiIHN0eWxlPSIiIGNsYXNzPSJiYXNpYyBsYWJlbC1jb250YWluZXIiPjwvcmVjdD48ZyB0cmFuc2Zvcm09InRyYW5zbGF0ZSgwLCAtOS41KSIgc3R5bGU9IiIgY2xhc3M9ImxhYmVsIj48cmVjdD48L3JlY3Q+PHRleHQgc3R5bGU9IiI+PHRzcGFuIGNsYXNzPSJyb3ciIHg9IjAiIGR5PSIxZW0iIHhtbDpzcGFjZT0icHJlc2VydmUiPkNhbGwgb25RdWVyeUNoYW5nZTwvdHNwYW4+PC90ZXh0PjwvZz48L2c+PGcgdHJhbnNmb3JtPSJ0cmFuc2xhdGUoMjgwMS42ODM1OTM3NSwgMTI4LjczODI4MTI1KSIgZGF0YS1pZD0iTiIgZGF0YS1ub2RlPSJ0cnVlIiBpZD0iZmxvd2NoYXJ0LU4tNTgiIGNsYXNzPSJub2RlIGRlZmF1bHQgZGVmYXVsdCBmbG93Y2hhcnQtbGFiZWwiPjxyZWN0IGhlaWdodD0iMzQiIHdpZHRoPSIxODUuODIwMzEyNSIgeT0iLTE3IiB4PSItOTIuOTEwMTU2MjUiIHJ5PSI1IiByeD0iNSIgc3R5bGU9IiIgY2xhc3M9ImJhc2ljIGxhYmVsLWNvbnRhaW5lciI+PC9yZWN0PjxnIHRyYW5zZm9ybT0idHJhbnNsYXRlKDAsIC05LjUpIiBzdHlsZT0iIiBjbGFzcz0ibGFiZWwiPjxyZWN0PjwvcmVjdD48dGV4dCBzdHlsZT0iIj48dHNwYW4gY2xhc3M9InJvdyIgeD0iMCIgZHk9IjFlbSIgeG1sOnNwYWNlPSJwcmVzZXJ2ZSI+U29ydCBhbmQgRGlzcGxheSBSZXN1bHRzPC90c3Bhbj48L3RleHQ+PC9nPjwvZz48ZyB0cmFuc2Zvcm09InRyYW5zbGF0ZSgxMTkxLjI3MzQzNzUsIDM2Mi4zNTU0Njg3NSkiIGRhdGEtaWQ9Ik8iIGRhdGEtbm9kZT0idHJ1ZSIgaWQ9ImZsb3djaGFydC1PLTU5IiBjbGFzcz0ibm9kZSBkZWZhdWx0IGRlZmF1bHQgZmxvd2NoYXJ0LWxhYmVsIj48cG9seWdvbiBzdHlsZT0iIiB0cmFuc2Zvcm09InRyYW5zbGF0ZSgtOTcuNTA3ODEyNSw5Ny41MDc4MTI1KSIgY2xhc3M9ImxhYmVsLWNvbnRhaW5lciIgcG9pbnRzPSI5Ny41MDc4MTI1LDAgMTk1LjAxNTYyNSwtOTcuNTA3ODEyNSA5Ny41MDc4MTI1LC0xOTUuMDE1NjI1IDAsLTk3LjUwNzgxMjUiPjwvcG9seWdvbj48ZyB0cmFuc2Zvcm09InRyYW5zbGF0ZSgwLCAtOS41KSIgc3R5bGU9IiIgY2xhc3M9ImxhYmVsIj48cmVjdD48L3JlY3Q+PHRleHQgc3R5bGU9IiI+PHRzcGFuIGNsYXNzPSJyb3ciIHg9IjAiIGR5PSIxZW0iIHhtbDpzcGFjZT0icHJlc2VydmUiPlJpZ2h0IENsaWNrIFRyYXkgSWNvbjwvdHNwYW4+PC90ZXh0PjwvZz48L2c+PGcgdHJhbnNmb3JtPSJ0cmFuc2xhdGUoMTM5NS44MDQ2ODc1LCAzNjIuMzU1NDY4NzUpIiBkYXRhLWlkPSJQIiBkYXRhLW5vZGU9InRydWUiIGlkPSJmbG93Y2hhcnQtUC02MCIgY2xhc3M9Im5vZGUgZGVmYXVsdCBkZWZhdWx0IGZsb3djaGFydC1sYWJlbCI+PHJlY3QgaGVpZ2h0PSIzNCIgd2lkdGg9IjExMy45Njg3NSIgeT0iLTE3IiB4PSItNTYuOTg0Mzc1IiByeT0iNSIgcng9IjUiIHN0eWxlPSIiIGNsYXNzPSJiYXNpYyBsYWJlbC1jb250YWluZXIiPjwvcmVjdD48ZyB0cmFuc2Zvcm09InRyYW5zbGF0ZSgwLCAtOS41KSIgc3R5bGU9IiIgY2xhc3M9ImxhYmVsIj48cmVjdD48L3JlY3Q+PHRleHQgc3R5bGU9IiI+PHRzcGFuIGNsYXNzPSJyb3ciIHg9IjAiIGR5PSIxZW0iIHhtbDpzcGFjZT0icHJlc2VydmUiPkNvbnRleHQgTWVudTwvdHNwYW4+PC90ZXh0PjwvZz48L2c+PGcgdHJhbnNmb3JtPSJ0cmFuc2xhdGUoMTU4Ny4yNjU2MjUsIDM2Mi4zNTU0Njg3NSkiIGRhdGEtaWQ9IlEiIGRhdGEtbm9kZT0idHJ1ZSIgaWQ9ImZsb3djaGFydC1RLTYxIiBjbGFzcz0ibm9kZSBkZWZhdWx0IGRlZmF1bHQgZmxvd2NoYXJ0LWxhYmVsIj48cmVjdCBoZWlnaHQ9IjM0IiB3aWR0aD0iMTA2LjIzNDM3NSIgeT0iLTE3IiB4PSItNTMuMTE3MTg3NSIgcnk9IjUiIHJ4PSI1IiBzdHlsZT0iZmlsbDojRkY0NTAwOyBzdHJva2U6I0ZGNDUwMDsiIGNsYXNzPSJiYXNpYyBsYWJlbC1jb250YWluZXIiPjwvcmVjdD48ZyB0cmFuc2Zvcm09InRyYW5zbGF0ZSgwLCAtOS41KSIgc3R5bGU9ImNvbG9yOiNGRkZGRkY7IiBjbGFzcz0ibGFiZWwiPjxyZWN0PjwvcmVjdD48dGV4dCBzdHlsZT0iZmlsbDojRkZGRkZGOyI+PHRzcGFuIGNsYXNzPSJyb3ciIHg9IjAiIGR5PSIxZW0iIHhtbDpzcGFjZT0icHJlc2VydmUiPkV4aXQgUHJvZ3JhbTwvdHNwYW4+PC90ZXh0PjwvZz48L2c+PGcgdHJhbnNmb3JtPSJ0cmFuc2xhdGUoMTgzNC42NTYyNSwgMzYyLjM1NTQ2ODc1KSIgZGF0YS1pZD0iUiIgZGF0YS1ub2RlPSJ0cnVlIiBpZD0iZmxvd2NoYXJ0LVItNjIiIGNsYXNzPSJub2RlIGRlZmF1bHQgZGVmYXVsdCBmbG93Y2hhcnQtbGFiZWwiPjxyZWN0IGhlaWdodD0iMzQiIHdpZHRoPSIxNjAuNjc5Njg3NSIgeT0iLTE3IiB4PSItODAuMzM5ODQzNzUiIHJ5PSI1IiByeD0iNSIgc3R5bGU9IiIgY2xhc3M9ImJhc2ljIGxhYmVsLWNvbnRhaW5lciI+PC9yZWN0PjxnIHRyYW5zZm9ybT0idHJhbnNsYXRlKDAsIC05LjUpIiBzdHlsZT0iIiBjbGFzcz0ibGFiZWwiPjxyZWN0PjwvcmVjdD48dGV4dCBzdHlsZT0iIj48dHNwYW4gY2xhc3M9InJvdyIgeD0iMCIgZHk9IjFlbSIgeG1sOnNwYWNlPSJwcmVzZXJ2ZSI+UnVuIG9uQXBwU2h1dGRvd248L3RzcGFuPjwvdGV4dD48L2c+PC9nPjwvZz48L2c+PC9nPjwvc3ZnPg==;" parent="1" vertex="1">
            <mxGeometry x="20" y="20" width="2910.59375" height="835.3656005859375" as="geometry" />
          </mxCell>
        </UserObject>
      </root>
    </mxGraphModel>
  </diagram>
</mxfile>
